<svg width="72" height="70" viewBox="0 0 72 70" fill="none" xmlns="http://www.w3.org/2000/svg">
<path fill-rule="evenodd" clip-rule="evenodd" d="M32.668 0.00734994C45.2125 -0.253961 56.1891 6.47579 62.0693 16.4722L51.9424 22.4175C48.4796 16.276 41.8806 12.0944 34.3018 12.0943H32.3408C21.1685 12.0945 12.0869 21.1767 12.0869 32.2837V36.2691C12.087 46.6355 19.9061 55.1994 29.959 56.3814L20.3916 65.9488C8.45507 60.8138 0 48.8251 0 35.0923V33.4595C0 15.2961 14.5045 0.33403 32.668 0.00734994ZM49.792 36.5484L32.2754 42.3452V30.2583H56.083L49.792 36.5484Z" fill="white"/>
<path d="M65.2291 34.8995C52.2571 50.2691 34.874 60.8742 22.1172 64.4092C41.7904 53.4046 56.4428 37.4867 61.3098 30.9034L57.2369 28.9821L71.6616 23.9102L67.6114 39.0257L65.2291 34.8995Z" fill="white"/>
<path d="M65.2291 34.8995C52.2571 50.2691 34.874 60.8742 22.1172 64.4092C41.7904 53.4046 56.4428 37.4867 61.3098 30.9034L57.2369 28.9821L71.6616 23.9102L67.6114 39.0257L65.2291 34.8995Z" fill="#FD7919"/>
<path d="M61.6963 57.6436C59.6348 60.1353 57.4335 62.1332 55.1641 63.7207V48.0527C57.8929 45.6493 60.1306 43.4414 61.6963 41.7363V57.6436Z" fill="white"/>
<path d="M61.6963 57.6436C59.6348 60.1353 57.4335 62.1332 55.1641 63.7207V48.0527C57.8929 45.6493 60.1306 43.4414 61.6963 41.7363V57.6436Z" fill="#FD7919"/>
<path d="M52.5449 65.1084C50.3626 66.3208 48.1418 67.1931 45.9375 67.79V55.0996C48.3019 53.4297 50.5224 51.7112 52.5449 50.0371V65.1084Z" fill="white"/>
<path d="M52.5449 65.1084C50.3626 66.3208 48.1418 67.1931 45.9375 67.79V55.0996C48.3019 53.4297 50.5224 51.7112 52.5449 50.0371V65.1084Z" fill="#FD7919"/>
<path d="M43.3232 68.5967C41.0012 69.011 38.7249 69.143 36.5625 69.0742V61.1367C38.8886 59.9002 41.1538 58.5334 43.3232 57.1035V68.5967Z" fill="white"/>
<path d="M43.3232 68.5967C41.0012 69.011 38.7249 69.143 36.5625 69.0742V61.1367C38.8886 59.9002 41.1538 58.5334 43.3232 57.1035V68.5967Z" fill="#FD7919"/>
<path d="M34.1006 68.6289C31.5976 68.3702 29.302 67.8609 27.3359 67.2422V64.8623C29.6117 64.1132 31.8773 63.1783 34.1006 62.1074V68.6289ZM61.6904 42.1982H60.9697C61.2233 41.9319 61.4643 41.6759 61.6904 41.4297V42.1982Z" fill="white"/>
<path d="M34.1006 68.6289C31.5976 68.3702 29.302 67.8609 27.3359 67.2422V64.8623C29.6117 64.1132 31.8773 63.1783 34.1006 62.1074V68.6289ZM61.6904 42.1982H60.9697C61.2233 41.9319 61.4643 41.6759 61.6904 41.4297V42.1982Z" fill="#FD7919"/>
<path d="M25.0352 66.4141C24.5987 66.2346 24.1866 66.0557 23.8047 65.8721C24.2147 65.7748 24.625 65.6695 25.0352 65.5586V66.4141Z" fill="white"/>
<path d="M25.0352 66.4141C24.5987 66.2346 24.1866 66.0557 23.8047 65.8721C24.2147 65.7748 24.625 65.6695 25.0352 65.5586V66.4141Z" fill="#FD7919"/>
</svg>
