<svg width="651" height="508" viewBox="0 0 651 508" fill="none" xmlns="http://www.w3.org/2000/svg">
<path d="M458.751 60.1093C456.911 59.4693 450.171 66.0293 402.851 113.249L365.211 150.819L400.301 115.769C429.061 87.0493 452.591 62.7693 452.591 61.8193C452.591 60.4693 451.481 60.0193 447.341 59.7093C443.941 59.4493 445.001 59.3093 450.381 59.2993C455.481 59.2893 457.641 59.4393 458.751 60.1093ZM459.951 64.4193C459.751 61.9893 459.491 60.8993 459.151 60.4393C459.141 60.4193 459.121 60.3993 459.101 60.3793C459.321 60.5793 459.491 60.8093 459.631 61.0793C459.751 61.2893 459.861 62.4393 459.951 64.4193Z" fill="#F86E0A"/>
<path d="M305.59 343.891C253.38 337.981 206.86 308.751 178.44 264.001C173.93 256.901 165.11 239.071 164.13 235.161C164.53 236.081 165.49 237.331 168.66 241.461C170.47 243.821 171.52 246.181 171.23 247.281C170.45 250.241 173.09 255.161 178.04 259.981C181 262.871 183.02 265.891 183.7 268.481C184.92 273.051 187.49 276.221 192.7 279.541C195.15 281.111 196.51 282.851 196.93 284.971C197.4 287.281 198.42 288.451 200.9 289.491C202.74 290.261 204.79 291.541 205.46 292.341C206.13 293.151 207.73 294.071 209.02 294.391C210.39 294.741 211.62 295.981 211.97 297.391C212.3 298.711 214.02 300.711 215.77 301.821C218.53 303.571 219.24 303.661 220.9 302.501C221.95 301.761 223.45 301.391 224.21 301.691C224.98 301.981 226.7 301.501 228.04 300.631C230.35 299.111 230.57 299.161 232.42 301.511C234.28 303.881 234.52 303.921 237.73 302.531C241.21 301.031 249.59 292.961 249.59 291.121C249.59 290.541 250.6 289.571 251.84 288.951C253.08 288.341 256.47 285.291 259.38 282.171C264.17 277.041 264.65 276.121 264.38 272.511C264.11 268.751 263.88 268.491 260.34 267.921C258.28 267.591 255.81 266.641 254.84 265.811C253.88 264.981 252.33 264.031 251.4 263.701C250.46 263.371 249.41 261.561 249.05 259.651C248.41 256.221 243.05 249.601 241.63 250.471C240.11 251.421 236.59 246.871 236.59 243.961C236.59 240.991 235.36 239.301 230.37 235.391C228.62 234.021 227.53 232.081 227.29 229.891C226.89 226.341 223.4 218.691 220.88 215.811C220.06 214.891 219.73 213.581 220.15 212.911C220.61 212.161 220.48 211.951 219.81 212.361C218.17 213.381 217.11 211.001 216.98 206.001C216.95 204.601 216.67 202.271 216.26 199.771C216.46 200.461 216.68 201.201 216.92 202.001C227.93 238.961 253.87 266.611 289.09 278.931C307.54 285.381 335.92 285.581 355.06 279.391C363.98 276.501 377.89 269.131 385.59 263.211C392.87 257.611 393.1 257.291 393.59 252.471C393.87 249.741 393.87 242.551 393.59 236.501L393.09 225.501L344.45 225.241C301.66 225.011 295.66 224.791 294.51 223.411C293.38 222.051 295.74 219.311 312.2 202.921L331.2 184.001H387.36C442.34 184.001 443.54 184.041 444.58 185.981C445.3 187.331 445.55 204.431 445.37 239.111L445.09 290.251L434.96 299.931C422.36 311.981 410.01 320.501 394.27 328.011C365.17 341.901 335.28 347.251 305.59 343.891ZM69.5898 507.271C31.5998 504.321 5.03982 480.281 0.579816 444.801C-4.08018 407.811 19.7898 374.061 56.3198 365.981C79.7098 360.811 105.89 366.461 122.22 380.191C126.53 383.821 128.67 385.581 128.74 387.441C128.82 389.261 126.89 391.171 123.06 395.031C113.04 405.131 112.74 405.221 106.59 399.691C97.6298 391.631 87.7798 388.051 74.5898 388.051C61.3898 388.051 51.1998 391.831 42.2398 400.061C16.3298 423.841 24.3398 467.501 56.9198 480.071C64.4998 482.991 65.5698 483.141 76.5098 482.831C87.0698 482.531 88.6598 482.221 94.5898 479.371C98.1698 477.661 102.97 474.611 105.27 472.601C109.67 468.771 115.59 458.301 115.59 454.361V452.041L77.0898 451.501L76.5198 431.261L109.31 431.631L142.09 431.991L141.94 444.751C141.78 458.731 140.12 465.571 134.44 475.681C125.81 491.021 107.8 502.991 89.0898 505.821C79.0398 507.341 74.6898 507.661 69.5898 507.271ZM283.09 505.821C270.39 504.281 260.63 499.751 252.5 491.621C242.62 481.741 238.41 471.441 238.37 457.001C238.3 434.541 250.69 416.741 271.41 409.491C277.55 407.351 280.28 407.001 290.82 407.021C301.26 407.041 304.13 407.411 310.05 409.501C330.75 416.801 342.82 434.131 342.85 456.581C342.87 470.851 339.29 479.971 329.62 490.311C318.07 502.651 301.77 508.081 283.09 505.821ZM387.88 503.201C386.49 502.321 384.08 497.131 367.71 459.771C346.92 412.321 346.31 410.791 347.77 409.871C348.5 409.411 354.17 409.021 360.38 409.021L371.67 409.001L374.5 415.311C376.06 418.771 377.67 422.711 378.09 424.061C378.51 425.401 379.67 428.301 380.66 430.501C381.66 432.701 384.76 440.121 387.56 447.001C390.36 453.881 393.49 461.531 394.51 464.001C395.54 466.471 397.16 470.401 398.12 472.721C399.08 475.051 400.2 476.741 400.61 476.491C401.01 476.241 402.35 473.441 403.58 470.271C404.81 467.101 406.4 463.151 407.1 461.501C407.81 459.851 412.75 447.921 418.07 435.001C423.4 422.081 428.23 410.941 428.8 410.251C429.52 409.381 433.4 409.001 441.55 409.001C447.99 409.001 453.5 409.241 453.8 409.541C454.1 409.841 452.43 414.451 450.09 419.791C447.75 425.131 443.78 434.221 441.28 440.001C427.44 471.961 414.22 501.661 413.34 502.751C412.22 504.151 390 504.551 387.88 503.201ZM551.09 505.381C542.82 503.231 536.5 498.221 533.28 491.241C531.21 486.771 531.07 484.871 530.78 457.751L530.48 429.001H516.52L516.8 419.251L517.09 409.501L523.84 409.201L530.59 408.911V382.941L542.84 383.221L555.09 383.501L555.37 396.221L555.65 408.931L566.37 409.221L577.09 409.501L577.38 419.251L577.66 429.001H555.59V453.451C555.59 469.611 555.98 478.751 556.73 480.401C558.97 485.331 566.53 487.181 573.8 484.591C575.85 483.861 577.76 483.501 578.05 483.801C578.35 484.091 578.59 488.521 578.59 493.631C578.59 502.151 578.41 503.031 576.42 504.091C574.16 505.301 554.61 506.291 551.09 505.381ZM623.09 505.121C618 503.771 611.96 500.231 609.24 497.001C604.27 491.101 603.59 486.171 603.59 456.361V429.091L589.09 428.501V409.501L603.59 408.911V383.121L615.08 382.811C623.95 382.571 626.69 382.801 627.08 383.831C627.36 384.561 627.59 390.531 627.59 397.081C627.59 407.751 627.77 409.011 629.34 409.051C630.3 409.081 635.37 409.191 640.59 409.301L650.09 409.501V428.501L638.84 428.781L627.59 429.071L627.6 453.281C627.62 480.061 627.88 481.381 633.6 484.251C637.72 486.311 641.69 486.411 646.84 484.571L650.59 483.241V493.081C650.59 502.271 650.44 503.011 648.34 504.141C645.69 505.561 627.43 506.271 623.09 505.121ZM449.67 59.9509C451.92 60.2609 452.59 60.7709 452.59 61.8209C452.59 62.7709 429.06 87.0508 400.3 115.771L352.22 163.791L364.59 151.121C373.67 141.821 382.89 131.631 385.09 128.471C387.29 125.321 390.83 120.781 392.95 118.391L396.8 114.041L394.05 110.771C392.54 108.971 389.23 105.701 386.7 103.501C384.16 101.301 381.22 98.3809 380.15 97.0009C376.3 92.0309 359.97 76.8009 354.91 73.4509C352.06 71.5709 349.45 69.5808 349.12 69.0508C348.02 67.2708 341.36 65.9508 339.84 67.2108C337.52 69.1308 336.4 70.4608 335.81 78.4308C336.01 72.7508 336.22 69.0909 336.42 68.4409C336.5 68.1709 336.58 67.9009 336.67 67.6409C337.04 67.6009 338.64 66.3809 340.53 64.6709C342.7 62.7109 346.19 60.6809 348.28 60.1609C350.51 59.6009 374.24 59.3108 405.44 59.4608C428.35 59.5608 441.86 59.6909 449.67 59.9509ZM167.26 503.331C166.29 502.371 166.47 411.741 167.44 410.211C168.04 409.271 171.11 409.001 179.17 409.211L190.09 409.501L190.39 416.871L190.68 424.241L196.09 418.261C203.62 409.941 214.06 405.741 223.04 407.431L226.59 408.091V430.591L220.18 430.191C204.9 429.211 194.53 437.481 191.59 452.991C191.04 455.901 190.59 468.561 190.59 481.141V504.001H179.26C173.02 504.001 167.62 503.701 167.26 503.331ZM299.53 483.421C318.32 477.851 324.8 452.751 311.39 437.511C305.12 430.391 300.74 428.501 290.59 428.551C280.41 428.601 275.94 430.531 269.79 437.511C255.94 453.251 263.21 478.531 283.09 483.741C288.96 485.281 293.57 485.201 299.53 483.421ZM303.06 217.961C304.62 220.471 307.27 218.051 305.82 215.441C305.03 214.041 304.8 214.041 303.68 215.391C302.99 216.231 302.71 217.381 303.06 217.961ZM214.45 190.481C213.67 185.651 213.57 180.301 213.87 168.501C213.94 165.851 214.02 163.421 214.14 161.161C214.1 164.031 214.09 167.541 214.09 172.001C214.09 181.421 214.12 186.611 214.45 190.481ZM216.22 144.411C217.71 137.941 220.11 131.851 224.03 123.471C225.55 120.211 227.06 117.261 228.65 114.481C224.07 122.721 219.56 133.201 216.9 142.111C216.65 142.931 216.43 143.691 216.22 144.411ZM339.15 62.6409C342.32 57.9109 349.16 50.8709 366.76 33.3809C351.32 48.7509 342.94 57.5809 339.15 62.6409ZM255.14 83.8109C250.29 87.9109 245.09 92.9809 240.62 97.9509C242.13 96.2509 243.76 94.4909 245.52 92.6609C248.57 89.5009 251.78 86.5509 255.14 83.8109ZM266.75 75.5709C270.83 73.0609 275.1 70.8209 279.52 68.8708C275.98 70.4309 270.97 73.0809 266.75 75.5709ZM459.9 63.4809C459.82 62.0809 459.73 61.2608 459.63 61.0808C459.62 61.0508 459.61 61.0309 459.59 61.0109C459.63 61.0409 459.65 61.0709 459.67 61.1009C459.75 61.2309 459.83 62.0509 459.9 63.4809ZM336.7 165.421C335.85 164.331 335.36 163.531 335.1 159.421C335.36 163.501 335.85 164.331 336.7 165.421ZM159.68 222.461C159.43 221.621 159.24 220.861 159.14 220.281C159.14 220.261 159.13 220.241 159.13 220.221C158.81 218.471 158.09 215.821 157.51 214.301C158.1 215.841 158.83 218.501 159.13 220.221C159.23 220.801 159.43 221.581 159.68 222.461Z" fill="white"/>
<path d="M215.77 301.821C214.02 300.711 212.3 298.711 211.97 297.391C211.62 295.981 210.39 294.741 209.02 294.391C207.73 294.071 206.13 293.151 205.46 292.341C204.79 291.541 202.74 290.261 200.9 289.491C198.42 288.451 197.4 287.281 196.93 284.971C196.51 282.851 195.15 281.111 192.7 279.541C187.49 276.221 184.92 273.051 183.7 268.481C183.02 265.891 181 262.871 178.04 259.981C173.09 255.161 170.45 250.241 171.23 247.281C171.52 246.181 170.47 243.821 168.66 241.461C164.14 235.591 164.11 235.541 163.8 233.961C163.65 233.161 162.65 230.441 161.6 227.921C160.54 225.391 159.43 221.931 159.13 220.221C158.83 218.501 158.1 215.841 157.51 214.301C156.43 211.471 155.48 206.751 155.44 204.001C155.43 203.171 155.17 201.831 154.87 201.001C154.23 199.281 153.88 197.311 153.09 191.001C152.32 184.881 152.27 158.561 153.02 153.001C153.35 150.521 153.85 146.481 154.12 144.001C154.4 141.521 155.99 134.551 157.65 128.501C159.31 122.451 160.73 116.941 160.8 116.251C160.87 115.561 161.2 115.001 161.54 115.001C161.89 115.001 162.23 114.131 162.31 113.071C162.39 112.001 164.92 105.941 167.94 99.6008C199.92 32.3108 269.43 -6.74925 343.38 1.02075C355.54 2.30075 366.59 4.85075 366.59 6.38075C366.59 7.02075 354.76 19.3507 340.3 33.7808C316.13 57.8808 313.72 60.0007 310.55 60.0207C305.11 60.0507 289.28 64.5607 279.52 68.8707C266.74 74.5107 255.31 82.5107 245.52 92.6608C235.29 103.281 229.76 111.211 224.03 123.471C216.08 140.481 214.38 148.011 213.87 168.501C213.5 183.181 213.74 187.881 215.15 194.001C216.1 198.121 216.92 203.521 216.98 206.001C217.11 211.001 218.17 213.381 219.81 212.361C220.48 211.951 220.61 212.161 220.15 212.911C219.73 213.581 220.06 214.891 220.88 215.811C223.4 218.691 226.89 226.341 227.29 229.891C227.53 232.081 228.62 234.021 230.37 235.391C235.36 239.301 236.59 240.991 236.59 243.961C236.59 246.871 240.11 251.421 241.63 250.471C243.05 249.601 248.41 256.221 249.05 259.651C249.41 261.561 250.46 263.371 251.4 263.701C252.33 264.031 253.88 264.981 254.84 265.811C255.81 266.641 258.28 267.591 260.34 267.921C263.88 268.491 264.11 268.751 264.38 272.511C264.65 276.121 264.17 277.041 259.38 282.171C256.47 285.291 253.08 288.341 251.84 288.951C250.6 289.571 249.59 290.541 249.59 291.121C249.59 292.961 241.21 301.031 237.73 302.531C234.52 303.921 234.28 303.881 232.42 301.511C230.57 299.161 230.35 299.111 228.04 300.631C226.7 301.501 224.98 301.981 224.21 301.691C223.45 301.391 221.95 301.761 220.9 302.501C219.24 303.661 218.53 303.571 215.77 301.821ZM336.71 165.431C334.73 162.911 334.69 161.781 335.02 118.601C335.38 72.3108 335.52 70.7907 339.84 67.2107C341.36 65.9507 348.02 67.2707 349.12 69.0507C349.45 69.5807 352.06 71.5708 354.91 73.4508C359.97 76.8008 376.3 92.0307 380.15 97.0007C381.22 98.3807 384.16 101.301 386.7 103.501C389.23 105.701 392.54 108.971 394.05 110.771L396.8 114.041L392.95 118.391C390.83 120.781 387.29 125.321 385.09 128.471C382.89 131.631 373.67 141.821 364.59 151.121L348.09 168.031L343.41 168.011C339.59 168.001 338.37 167.531 336.71 165.431ZM303.06 217.961C302.71 217.381 302.99 216.231 303.68 215.391C304.8 214.041 305.03 214.041 305.82 215.441C307.27 218.051 304.62 220.471 303.06 217.961Z" fill="white"/>
<path d="M473.046 502.75C472.776 502.06 472.686 480.8 472.826 455.5L473.086 409.5H484.586H496.086L496.346 456.75L496.606 504H485.066C476.756 504 473.386 503.65 473.046 502.75ZM476.886 392.1C472.726 389.49 470.586 385.22 470.586 379.55C470.586 375.75 471.166 374.36 474.126 371.08C478.206 366.57 483.046 365.24 489.286 366.92C499.606 369.7 502.576 382.85 494.606 390.48C490.556 394.36 481.766 395.16 476.886 392.1ZM460.566 122.75C460.566 89.57 460.156 61.87 459.666 61.1C458.936 59.94 449.826 59.66 405.436 59.46C374.236 59.31 350.506 59.6 348.276 60.16C346.186 60.68 342.696 62.71 340.526 64.67C338.356 66.63 336.586 67.94 336.586 67.58C336.586 64.35 344.556 55.4 369.256 30.89C395.686 4.67 398.476 2.19 402.776 1.14C406.006 0.359999 424.366 0 461.526 0C514.256 0 515.636 0.05 517.586 2C519.546 3.96 519.586 5.32999 519.586 63.43C519.586 102.38 519.226 123.84 518.536 125.68C517.356 128.85 463.796 183 461.846 183C460.846 183 460.586 170.45 460.566 122.75Z" fill="#F86E0A"/>
</svg>
