<svg width="279" height="87" viewBox="0 0 279 87" fill="none" xmlns="http://www.w3.org/2000/svg">
<mask id="path-1-outside-1_502_40" maskUnits="userSpaceOnUse" x="23.6953" y="74.7383" width="231" height="9" fill="black">
<rect fill="white" x="23.6953" y="74.7383" width="231" height="9"/>
<path d="M32.0107 75.8474V82.7383H30.6286V77.9305L28.8615 82.7383H27.6571L25.8899 77.9502V82.7383H24.498V75.8474H26.1861L28.279 81.0304L30.3325 75.8474H32.0107ZM38.8095 75.6697C39.4611 75.6697 40.0501 75.8211 40.5766 76.1239C41.1097 76.4266 41.5276 76.8511 41.8304 77.3974C42.1397 77.9371 42.2944 78.5492 42.2944 79.2336C42.2944 79.9181 42.1397 80.5335 41.8304 81.0797C41.5276 81.626 41.1097 82.0505 40.5766 82.3533C40.0501 82.656 39.4611 82.8074 38.8095 82.8074C38.1579 82.8074 37.5656 82.656 37.0325 82.3533C36.506 82.0505 36.088 81.626 35.7787 81.0797C35.476 80.5335 35.3246 79.9181 35.3246 79.2336C35.3246 78.5492 35.476 77.9371 35.7787 77.3974C36.088 76.8511 36.506 76.4266 37.0325 76.1239C37.5656 75.8211 38.1579 75.6697 38.8095 75.6697ZM38.8095 76.9531C38.4014 76.9531 38.0427 77.0453 37.7334 77.2296C37.4241 77.4138 37.1806 77.6804 37.0029 78.0292C36.8317 78.3715 36.7462 78.7729 36.7462 79.2336C36.7462 79.6943 36.8317 80.0991 37.0029 80.4479C37.1806 80.7902 37.4241 81.0534 37.7334 81.2377C38.0427 81.422 38.4014 81.5141 38.8095 81.5141C39.2175 81.5141 39.5762 81.422 39.8856 81.2377C40.1949 81.0534 40.4351 80.7902 40.6062 80.4479C40.7839 80.0991 40.8728 79.6943 40.8728 79.2336C40.8728 78.7729 40.7839 78.3715 40.6062 78.0292C40.4351 77.6804 40.1949 77.4138 39.8856 77.2296C39.5762 77.0453 39.2175 76.9531 38.8095 76.9531ZM51.7425 79.2435C51.7425 79.9346 51.5977 80.5433 51.3082 81.0699C51.0186 81.5964 50.5973 82.0077 50.0445 82.3039C49.4982 82.5935 48.8467 82.7383 48.0898 82.7383H45.6119V75.7685H48.0898C48.8467 75.7685 49.4982 75.9133 50.0445 76.2028C50.5973 76.4859 51.0186 76.8906 51.3082 77.4171C51.5977 77.9371 51.7425 78.5459 51.7425 79.2435ZM47.9713 81.4944C48.7216 81.4944 49.3008 81.2969 49.7088 80.902C50.1235 80.5072 50.3308 79.9543 50.3308 79.2435C50.3308 78.5261 50.1235 77.97 49.7088 77.5751C49.3008 77.1802 48.7216 76.9828 47.9713 76.9828H47.0038V81.4944H47.9713ZM56.4473 76.8742V78.6808H58.9153V79.747H56.4473V81.6227H59.2115V82.7383H55.0553V75.7685H59.2115V76.8742H56.4473ZM66.1457 82.7383L64.5168 80.0234H63.9047V82.7383H62.5127V75.7685H65.1683C65.9779 75.7685 66.5932 75.9659 67.0144 76.3608C67.4422 76.7557 67.6561 77.2756 67.6561 77.9206C67.6561 78.4471 67.5081 78.8881 67.2119 79.2435C66.9223 79.5989 66.5011 79.8358 65.9482 79.9543L67.6858 82.7383H66.1457ZM63.9047 79.0658H65.0499C65.8462 79.0658 66.2444 78.7137 66.2444 78.0095C66.2444 77.6738 66.1457 77.4138 65.9482 77.2296C65.7574 77.0387 65.4579 76.9433 65.0499 76.9433H63.9047V79.0658ZM76.7703 82.7383H75.3783L72.2587 77.9996V82.7383H70.8667V75.7685H72.2587L75.3783 80.5466V75.7685H76.7703V82.7383ZM89.5091 80.8329C89.5091 81.1883 89.4202 81.5174 89.2425 81.8202C89.0648 82.1163 88.8016 82.3566 88.4528 82.5408C88.1039 82.7185 87.6794 82.8074 87.1792 82.8074C86.6856 82.8074 86.2447 82.7251 85.8563 82.5606C85.468 82.3895 85.1554 82.1459 84.9185 81.83C84.6881 81.5141 84.5565 81.1456 84.5236 80.7243H86.0044C86.0373 81.0073 86.1492 81.2443 86.3401 81.4351C86.5375 81.6194 86.7975 81.7116 87.12 81.7116C87.4096 81.7116 87.6301 81.6359 87.7814 81.4845C87.9394 81.3265 88.0184 81.1258 88.0184 80.8823C88.0184 80.6651 87.9558 80.4874 87.8308 80.3492C87.7058 80.2044 87.5478 80.0892 87.3569 80.0037C87.1661 79.9181 86.9028 79.8194 86.5672 79.7075C86.1328 79.5627 85.7774 79.4212 85.5009 79.283C85.2245 79.1382 84.9876 78.9309 84.7901 78.661C84.5993 78.3912 84.5038 78.0391 84.5038 77.6047C84.5038 77.0058 84.7177 76.5352 85.1455 76.193C85.5799 75.8442 86.1525 75.6697 86.8633 75.6697C87.6004 75.6697 88.1862 75.8474 88.6206 76.2028C89.0615 76.5582 89.3116 77.0321 89.3709 77.6245H87.8703C87.8308 77.3744 87.7255 77.1703 87.5544 77.0124C87.3833 76.8478 87.1496 76.7656 86.8534 76.7656C86.5968 76.7656 86.3895 76.8347 86.2315 76.9729C86.0735 77.1045 85.9946 77.2987 85.9946 77.5553C85.9946 77.7594 86.0538 77.9305 86.1723 78.0687C86.2973 78.2003 86.452 78.3089 86.6363 78.3945C86.8271 78.48 87.0838 78.5755 87.4063 78.6808C87.8538 78.8387 88.2158 78.9868 88.4922 79.125C88.7752 79.2632 89.0155 79.4706 89.2129 79.747C89.4104 80.0234 89.5091 80.3854 89.5091 80.8329ZM96.0728 75.6697C96.7244 75.6697 97.3134 75.8211 97.84 76.1239C98.3731 76.4266 98.791 76.8511 99.0937 77.3974C99.4031 77.9371 99.5577 78.5492 99.5577 79.2336C99.5577 79.9181 99.4031 80.5335 99.0937 81.0797C98.791 81.626 98.3731 82.0505 97.84 82.3533C97.3134 82.656 96.7244 82.8074 96.0728 82.8074C95.4213 82.8074 94.8289 82.656 94.2958 82.3533C93.7693 82.0505 93.3514 81.626 93.042 81.0797C92.7393 80.5335 92.5879 79.9181 92.5879 79.2336C92.5879 78.5492 92.7393 77.9371 93.042 77.3974C93.3514 76.8511 93.7693 76.4266 94.2958 76.1239C94.8289 75.8211 95.4213 75.6697 96.0728 75.6697ZM96.0728 76.9531C95.6648 76.9531 95.3061 77.0453 94.9968 77.2296C94.6874 77.4138 94.4439 77.6804 94.2662 78.0292C94.0951 78.3715 94.0095 78.7729 94.0095 79.2336C94.0095 79.6943 94.0951 80.0991 94.2662 80.4479C94.4439 80.7902 94.6874 81.0534 94.9968 81.2377C95.3061 81.422 95.6648 81.5141 96.0728 81.5141C96.4809 81.5141 96.8396 81.422 97.1489 81.2377C97.4582 81.0534 97.6985 80.7902 97.8696 80.4479C98.0473 80.0991 98.1361 79.6943 98.1361 79.2336C98.1361 78.7729 98.0473 78.3715 97.8696 78.0292C97.6985 77.6804 97.4582 77.4138 97.1489 77.2296C96.8396 77.0453 96.4809 76.9531 96.0728 76.9531ZM104.267 81.6721H106.607V82.7383H102.875V75.7685H104.267V81.6721ZM111.049 75.7685V79.8556C111.049 80.4018 111.167 80.8132 111.404 81.0896C111.647 81.3595 111.996 81.4944 112.45 81.4944C112.898 81.4944 113.24 81.3595 113.477 81.0896C113.721 80.8132 113.842 80.4018 113.842 79.8556V75.7685H115.225V79.8556C115.225 80.5006 115.103 81.0468 114.859 81.4944C114.622 81.9353 114.29 82.2644 113.862 82.4816C113.441 82.6988 112.961 82.8074 112.421 82.8074C111.585 82.8074 110.917 82.5573 110.417 82.0571C109.917 81.5569 109.666 80.8231 109.666 79.8556V75.7685H111.049ZM123.454 75.7685V76.8742H121.529V82.7383H120.137V76.8742H118.222V75.7685H123.454ZM127.883 75.7685V82.7383H126.491V75.7685H127.883ZM134.681 75.6697C135.332 75.6697 135.921 75.8211 136.448 76.1239C136.981 76.4266 137.399 76.8511 137.702 77.3974C138.011 77.9371 138.166 78.5492 138.166 79.2336C138.166 79.9181 138.011 80.5335 137.702 81.0797C137.399 81.626 136.981 82.0505 136.448 82.3533C135.921 82.656 135.332 82.8074 134.681 82.8074C134.029 82.8074 133.437 82.656 132.904 82.3533C132.377 82.0505 131.959 81.626 131.65 81.0797C131.347 80.5335 131.196 79.9181 131.196 79.2336C131.196 78.5492 131.347 77.9371 131.65 77.3974C131.959 76.8511 132.377 76.4266 132.904 76.1239C133.437 75.8211 134.029 75.6697 134.681 75.6697ZM134.681 76.9531C134.273 76.9531 133.914 77.0453 133.605 77.2296C133.295 77.4138 133.052 77.6804 132.874 78.0292C132.703 78.3715 132.617 78.7729 132.617 79.2336C132.617 79.6943 132.703 80.0991 132.874 80.4479C133.052 80.7902 133.295 81.0534 133.605 81.2377C133.914 81.422 134.273 81.5141 134.681 81.5141C135.089 81.5141 135.447 81.422 135.757 81.2377C136.066 81.0534 136.306 80.7902 136.477 80.4479C136.655 80.0991 136.744 79.6943 136.744 79.2336C136.744 78.7729 136.655 78.3715 136.477 78.0292C136.306 77.6804 136.066 77.4138 135.757 77.2296C135.447 77.0453 135.089 76.9531 134.681 76.9531ZM147.387 82.7383H145.995L142.875 77.9996V82.7383H141.483V75.7685H142.875L145.995 80.5466V75.7685H147.387V82.7383ZM155.705 80.8329C155.705 81.1883 155.616 81.5174 155.438 81.8202C155.261 82.1163 154.997 82.3566 154.649 82.5408C154.3 82.7185 153.875 82.8074 153.375 82.8074C152.881 82.8074 152.44 82.7251 152.052 82.5606C151.664 82.3895 151.351 82.1459 151.114 81.83C150.884 81.5141 150.752 81.1456 150.719 80.7243H152.2C152.233 81.0073 152.345 81.2443 152.536 81.4351C152.733 81.6194 152.993 81.7116 153.316 81.7116C153.605 81.7116 153.826 81.6359 153.977 81.4845C154.135 81.3265 154.214 81.1258 154.214 80.8823C154.214 80.6651 154.152 80.4874 154.027 80.3492C153.902 80.2044 153.744 80.0892 153.553 80.0037C153.362 79.9181 153.099 79.8194 152.763 79.7075C152.329 79.5627 151.973 79.4212 151.697 79.283C151.42 79.1382 151.183 78.9309 150.986 78.661C150.795 78.3912 150.7 78.0391 150.7 77.6047C150.7 77.0058 150.914 76.5352 151.341 76.193C151.776 75.8442 152.348 75.6697 153.059 75.6697C153.796 75.6697 154.382 75.8474 154.816 76.2028C155.257 76.5582 155.507 77.0321 155.567 77.6245H154.066C154.027 77.3744 153.921 77.1703 153.75 77.0124C153.579 76.8478 153.345 76.7656 153.049 76.7656C152.793 76.7656 152.585 76.8347 152.427 76.9729C152.269 77.1045 152.19 77.2987 152.19 77.5553C152.19 77.7594 152.25 77.9305 152.368 78.0687C152.493 78.2003 152.648 78.3089 152.832 78.3945C153.023 78.48 153.28 78.5755 153.602 78.6808C154.05 78.8387 154.412 78.9868 154.688 79.125C154.971 79.2632 155.211 79.4706 155.409 79.747C155.606 80.0234 155.705 80.3854 155.705 80.8329ZM167.054 82.7383L165.426 80.0234H164.813V82.7383H163.421V75.7685H166.077C166.887 75.7685 167.502 75.9659 167.923 76.3608C168.351 76.7557 168.565 77.2756 168.565 77.9206C168.565 78.4471 168.417 78.8881 168.121 79.2435C167.831 79.5989 167.41 79.8358 166.857 79.9543L168.594 82.7383H167.054ZM164.813 79.0658H165.959C166.755 79.0658 167.153 78.7137 167.153 78.0095C167.153 77.6738 167.054 77.4138 166.857 77.2296C166.666 77.0387 166.367 76.9433 165.959 76.9433H164.813V79.0658ZM173.167 76.8742V78.6808H175.636V79.747H173.167V81.6227H175.932V82.7383H171.775V75.7685H175.932V76.8742H173.167ZM183.478 81.3364H180.684L180.19 82.7383H178.72L181.286 75.8474H182.876L185.433 82.7383H183.962L183.478 81.3364ZM183.103 80.2801L182.076 77.3382L181.049 80.2801H183.103ZM189.847 81.6721H192.186V82.7383H188.455V75.7685H189.847V81.6721ZM202.934 75.6994C203.783 75.6994 204.487 75.91 205.047 76.3312C205.606 76.7458 205.965 77.3085 206.123 78.0193H204.662C204.524 77.7034 204.303 77.4533 204 77.2691C203.704 77.0782 203.352 76.9828 202.944 76.9828C202.542 76.9828 202.187 77.0749 201.878 77.2592C201.568 77.4435 201.328 77.7067 201.157 78.049C200.986 78.3912 200.9 78.7927 200.9 79.2534C200.9 79.9839 201.095 80.5532 201.483 80.9613C201.878 81.3693 202.414 81.5734 203.092 81.5734C203.592 81.5734 204.02 81.4253 204.375 81.1291C204.737 80.8329 204.971 80.4216 205.076 79.8951H202.717V78.898H206.241V80.2406C206.143 80.7013 205.948 81.1258 205.659 81.5141C205.376 81.9024 205.001 82.2151 204.533 82.452C204.073 82.6823 203.543 82.7975 202.944 82.7975C202.259 82.7975 201.654 82.6494 201.127 82.3533C200.608 82.0505 200.203 81.6326 199.913 81.0995C199.63 80.5598 199.489 79.9444 199.489 79.2534C199.489 78.5623 199.63 77.9502 199.913 77.4171C200.203 76.8775 200.608 76.4562 201.127 76.1535C201.647 75.8507 202.25 75.6994 202.934 75.6994ZM213.187 82.7383L211.558 80.0234H210.946V82.7383H209.554V75.7685H212.21C213.019 75.7685 213.635 75.9659 214.056 76.3608C214.484 76.7557 214.698 77.2756 214.698 77.9206C214.698 78.4471 214.55 78.8881 214.253 79.2435C213.964 79.5989 213.543 79.8358 212.99 79.9543L214.727 82.7383H213.187ZM210.946 79.0658H212.091C212.888 79.0658 213.286 78.7137 213.286 78.0095C213.286 77.6738 213.187 77.4138 212.99 77.2296C212.799 77.0387 212.499 76.9433 212.091 76.9433H210.946V79.0658ZM221.176 75.6697C221.828 75.6697 222.417 75.8211 222.943 76.1239C223.476 76.4266 223.894 76.8511 224.197 77.3974C224.506 77.9371 224.661 78.5492 224.661 79.2336C224.661 79.9181 224.506 80.5335 224.197 81.0797C223.894 81.626 223.476 82.0505 222.943 82.3533C222.417 82.656 221.828 82.8074 221.176 82.8074C220.524 82.8074 219.932 82.656 219.399 82.3533C218.872 82.0505 218.454 81.626 218.145 81.0797C217.842 80.5335 217.691 79.9181 217.691 79.2336C217.691 78.5492 217.842 77.9371 218.145 77.3974C218.454 76.8511 218.872 76.4266 219.399 76.1239C219.932 75.8211 220.524 75.6697 221.176 75.6697ZM221.176 76.9531C220.768 76.9531 220.409 77.0453 220.1 77.2296C219.791 77.4138 219.547 77.6804 219.369 78.0292C219.198 78.3715 219.113 78.7729 219.113 79.2336C219.113 79.6943 219.198 80.0991 219.369 80.4479C219.547 80.7902 219.791 81.0534 220.1 81.2377C220.409 81.422 220.768 81.5141 221.176 81.5141C221.584 81.5141 221.943 81.422 222.252 81.2377C222.561 81.0534 222.802 80.7902 222.973 80.4479C223.15 80.0991 223.239 79.6943 223.239 79.2336C223.239 78.7729 223.15 78.3715 222.973 78.0292C222.802 77.6804 222.561 77.4138 222.252 77.2296C221.943 77.0453 221.584 76.9531 221.176 76.9531ZM237.12 75.7685L235.412 82.7383H233.694L232.391 77.6837L231.078 82.7383H229.37L227.662 75.7685H229.173L230.239 81.1686L231.621 75.7685H233.151L234.543 81.1686L235.61 75.7685H237.12ZM245.082 75.7685V76.8742H243.157V82.7383H241.765V76.8742H239.849V75.7685H245.082ZM253.894 75.7685V82.7383H252.492V79.7075H249.51V82.7383H248.118V75.7685H249.51V78.5919H252.492V75.7685H253.894Z"/>
</mask>
<path d="M32.0107 75.8474V82.7383H30.6286V77.9305L28.8615 82.7383H27.6571L25.8899 77.9502V82.7383H24.498V75.8474H26.1861L28.279 81.0304L30.3325 75.8474H32.0107ZM38.8095 75.6697C39.4611 75.6697 40.0501 75.8211 40.5766 76.1239C41.1097 76.4266 41.5276 76.8511 41.8304 77.3974C42.1397 77.9371 42.2944 78.5492 42.2944 79.2336C42.2944 79.9181 42.1397 80.5335 41.8304 81.0797C41.5276 81.626 41.1097 82.0505 40.5766 82.3533C40.0501 82.656 39.4611 82.8074 38.8095 82.8074C38.1579 82.8074 37.5656 82.656 37.0325 82.3533C36.506 82.0505 36.088 81.626 35.7787 81.0797C35.476 80.5335 35.3246 79.9181 35.3246 79.2336C35.3246 78.5492 35.476 77.9371 35.7787 77.3974C36.088 76.8511 36.506 76.4266 37.0325 76.1239C37.5656 75.8211 38.1579 75.6697 38.8095 75.6697ZM38.8095 76.9531C38.4014 76.9531 38.0427 77.0453 37.7334 77.2296C37.4241 77.4138 37.1806 77.6804 37.0029 78.0292C36.8317 78.3715 36.7462 78.7729 36.7462 79.2336C36.7462 79.6943 36.8317 80.0991 37.0029 80.4479C37.1806 80.7902 37.4241 81.0534 37.7334 81.2377C38.0427 81.422 38.4014 81.5141 38.8095 81.5141C39.2175 81.5141 39.5762 81.422 39.8856 81.2377C40.1949 81.0534 40.4351 80.7902 40.6062 80.4479C40.7839 80.0991 40.8728 79.6943 40.8728 79.2336C40.8728 78.7729 40.7839 78.3715 40.6062 78.0292C40.4351 77.6804 40.1949 77.4138 39.8856 77.2296C39.5762 77.0453 39.2175 76.9531 38.8095 76.9531ZM51.7425 79.2435C51.7425 79.9346 51.5977 80.5433 51.3082 81.0699C51.0186 81.5964 50.5973 82.0077 50.0445 82.3039C49.4982 82.5935 48.8467 82.7383 48.0898 82.7383H45.6119V75.7685H48.0898C48.8467 75.7685 49.4982 75.9133 50.0445 76.2028C50.5973 76.4859 51.0186 76.8906 51.3082 77.4171C51.5977 77.9371 51.7425 78.5459 51.7425 79.2435ZM47.9713 81.4944C48.7216 81.4944 49.3008 81.2969 49.7088 80.902C50.1235 80.5072 50.3308 79.9543 50.3308 79.2435C50.3308 78.5261 50.1235 77.97 49.7088 77.5751C49.3008 77.1802 48.7216 76.9828 47.9713 76.9828H47.0038V81.4944H47.9713ZM56.4473 76.8742V78.6808H58.9153V79.747H56.4473V81.6227H59.2115V82.7383H55.0553V75.7685H59.2115V76.8742H56.4473ZM66.1457 82.7383L64.5168 80.0234H63.9047V82.7383H62.5127V75.7685H65.1683C65.9779 75.7685 66.5932 75.9659 67.0144 76.3608C67.4422 76.7557 67.6561 77.2756 67.6561 77.9206C67.6561 78.4471 67.5081 78.8881 67.2119 79.2435C66.9223 79.5989 66.5011 79.8358 65.9482 79.9543L67.6858 82.7383H66.1457ZM63.9047 79.0658H65.0499C65.8462 79.0658 66.2444 78.7137 66.2444 78.0095C66.2444 77.6738 66.1457 77.4138 65.9482 77.2296C65.7574 77.0387 65.4579 76.9433 65.0499 76.9433H63.9047V79.0658ZM76.7703 82.7383H75.3783L72.2587 77.9996V82.7383H70.8667V75.7685H72.2587L75.3783 80.5466V75.7685H76.7703V82.7383ZM89.5091 80.8329C89.5091 81.1883 89.4202 81.5174 89.2425 81.8202C89.0648 82.1163 88.8016 82.3566 88.4528 82.5408C88.1039 82.7185 87.6794 82.8074 87.1792 82.8074C86.6856 82.8074 86.2447 82.7251 85.8563 82.5606C85.468 82.3895 85.1554 82.1459 84.9185 81.83C84.6881 81.5141 84.5565 81.1456 84.5236 80.7243H86.0044C86.0373 81.0073 86.1492 81.2443 86.3401 81.4351C86.5375 81.6194 86.7975 81.7116 87.12 81.7116C87.4096 81.7116 87.6301 81.6359 87.7814 81.4845C87.9394 81.3265 88.0184 81.1258 88.0184 80.8823C88.0184 80.6651 87.9558 80.4874 87.8308 80.3492C87.7058 80.2044 87.5478 80.0892 87.3569 80.0037C87.1661 79.9181 86.9028 79.8194 86.5672 79.7075C86.1328 79.5627 85.7774 79.4212 85.5009 79.283C85.2245 79.1382 84.9876 78.9309 84.7901 78.661C84.5993 78.3912 84.5038 78.0391 84.5038 77.6047C84.5038 77.0058 84.7177 76.5352 85.1455 76.193C85.5799 75.8442 86.1525 75.6697 86.8633 75.6697C87.6004 75.6697 88.1862 75.8474 88.6206 76.2028C89.0615 76.5582 89.3116 77.0321 89.3709 77.6245H87.8703C87.8308 77.3744 87.7255 77.1703 87.5544 77.0124C87.3833 76.8478 87.1496 76.7656 86.8534 76.7656C86.5968 76.7656 86.3895 76.8347 86.2315 76.9729C86.0735 77.1045 85.9946 77.2987 85.9946 77.5553C85.9946 77.7594 86.0538 77.9305 86.1723 78.0687C86.2973 78.2003 86.452 78.3089 86.6363 78.3945C86.8271 78.48 87.0838 78.5755 87.4063 78.6808C87.8538 78.8387 88.2158 78.9868 88.4922 79.125C88.7752 79.2632 89.0155 79.4706 89.2129 79.747C89.4104 80.0234 89.5091 80.3854 89.5091 80.8329ZM96.0728 75.6697C96.7244 75.6697 97.3134 75.8211 97.84 76.1239C98.3731 76.4266 98.791 76.8511 99.0937 77.3974C99.4031 77.9371 99.5577 78.5492 99.5577 79.2336C99.5577 79.9181 99.4031 80.5335 99.0937 81.0797C98.791 81.626 98.3731 82.0505 97.84 82.3533C97.3134 82.656 96.7244 82.8074 96.0728 82.8074C95.4213 82.8074 94.8289 82.656 94.2958 82.3533C93.7693 82.0505 93.3514 81.626 93.042 81.0797C92.7393 80.5335 92.5879 79.9181 92.5879 79.2336C92.5879 78.5492 92.7393 77.9371 93.042 77.3974C93.3514 76.8511 93.7693 76.4266 94.2958 76.1239C94.8289 75.8211 95.4213 75.6697 96.0728 75.6697ZM96.0728 76.9531C95.6648 76.9531 95.3061 77.0453 94.9968 77.2296C94.6874 77.4138 94.4439 77.6804 94.2662 78.0292C94.0951 78.3715 94.0095 78.7729 94.0095 79.2336C94.0095 79.6943 94.0951 80.0991 94.2662 80.4479C94.4439 80.7902 94.6874 81.0534 94.9968 81.2377C95.3061 81.422 95.6648 81.5141 96.0728 81.5141C96.4809 81.5141 96.8396 81.422 97.1489 81.2377C97.4582 81.0534 97.6985 80.7902 97.8696 80.4479C98.0473 80.0991 98.1361 79.6943 98.1361 79.2336C98.1361 78.7729 98.0473 78.3715 97.8696 78.0292C97.6985 77.6804 97.4582 77.4138 97.1489 77.2296C96.8396 77.0453 96.4809 76.9531 96.0728 76.9531ZM104.267 81.6721H106.607V82.7383H102.875V75.7685H104.267V81.6721ZM111.049 75.7685V79.8556C111.049 80.4018 111.167 80.8132 111.404 81.0896C111.647 81.3595 111.996 81.4944 112.45 81.4944C112.898 81.4944 113.24 81.3595 113.477 81.0896C113.721 80.8132 113.842 80.4018 113.842 79.8556V75.7685H115.225V79.8556C115.225 80.5006 115.103 81.0468 114.859 81.4944C114.622 81.9353 114.29 82.2644 113.862 82.4816C113.441 82.6988 112.961 82.8074 112.421 82.8074C111.585 82.8074 110.917 82.5573 110.417 82.0571C109.917 81.5569 109.666 80.8231 109.666 79.8556V75.7685H111.049ZM123.454 75.7685V76.8742H121.529V82.7383H120.137V76.8742H118.222V75.7685H123.454ZM127.883 75.7685V82.7383H126.491V75.7685H127.883ZM134.681 75.6697C135.332 75.6697 135.921 75.8211 136.448 76.1239C136.981 76.4266 137.399 76.8511 137.702 77.3974C138.011 77.9371 138.166 78.5492 138.166 79.2336C138.166 79.9181 138.011 80.5335 137.702 81.0797C137.399 81.626 136.981 82.0505 136.448 82.3533C135.921 82.656 135.332 82.8074 134.681 82.8074C134.029 82.8074 133.437 82.656 132.904 82.3533C132.377 82.0505 131.959 81.626 131.65 81.0797C131.347 80.5335 131.196 79.9181 131.196 79.2336C131.196 78.5492 131.347 77.9371 131.65 77.3974C131.959 76.8511 132.377 76.4266 132.904 76.1239C133.437 75.8211 134.029 75.6697 134.681 75.6697ZM134.681 76.9531C134.273 76.9531 133.914 77.0453 133.605 77.2296C133.295 77.4138 133.052 77.6804 132.874 78.0292C132.703 78.3715 132.617 78.7729 132.617 79.2336C132.617 79.6943 132.703 80.0991 132.874 80.4479C133.052 80.7902 133.295 81.0534 133.605 81.2377C133.914 81.422 134.273 81.5141 134.681 81.5141C135.089 81.5141 135.447 81.422 135.757 81.2377C136.066 81.0534 136.306 80.7902 136.477 80.4479C136.655 80.0991 136.744 79.6943 136.744 79.2336C136.744 78.7729 136.655 78.3715 136.477 78.0292C136.306 77.6804 136.066 77.4138 135.757 77.2296C135.447 77.0453 135.089 76.9531 134.681 76.9531ZM147.387 82.7383H145.995L142.875 77.9996V82.7383H141.483V75.7685H142.875L145.995 80.5466V75.7685H147.387V82.7383ZM155.705 80.8329C155.705 81.1883 155.616 81.5174 155.438 81.8202C155.261 82.1163 154.997 82.3566 154.649 82.5408C154.3 82.7185 153.875 82.8074 153.375 82.8074C152.881 82.8074 152.44 82.7251 152.052 82.5606C151.664 82.3895 151.351 82.1459 151.114 81.83C150.884 81.5141 150.752 81.1456 150.719 80.7243H152.2C152.233 81.0073 152.345 81.2443 152.536 81.4351C152.733 81.6194 152.993 81.7116 153.316 81.7116C153.605 81.7116 153.826 81.6359 153.977 81.4845C154.135 81.3265 154.214 81.1258 154.214 80.8823C154.214 80.6651 154.152 80.4874 154.027 80.3492C153.902 80.2044 153.744 80.0892 153.553 80.0037C153.362 79.9181 153.099 79.8194 152.763 79.7075C152.329 79.5627 151.973 79.4212 151.697 79.283C151.42 79.1382 151.183 78.9309 150.986 78.661C150.795 78.3912 150.7 78.0391 150.7 77.6047C150.7 77.0058 150.914 76.5352 151.341 76.193C151.776 75.8442 152.348 75.6697 153.059 75.6697C153.796 75.6697 154.382 75.8474 154.816 76.2028C155.257 76.5582 155.507 77.0321 155.567 77.6245H154.066C154.027 77.3744 153.921 77.1703 153.75 77.0124C153.579 76.8478 153.345 76.7656 153.049 76.7656C152.793 76.7656 152.585 76.8347 152.427 76.9729C152.269 77.1045 152.19 77.2987 152.19 77.5553C152.19 77.7594 152.25 77.9305 152.368 78.0687C152.493 78.2003 152.648 78.3089 152.832 78.3945C153.023 78.48 153.28 78.5755 153.602 78.6808C154.05 78.8387 154.412 78.9868 154.688 79.125C154.971 79.2632 155.211 79.4706 155.409 79.747C155.606 80.0234 155.705 80.3854 155.705 80.8329ZM167.054 82.7383L165.426 80.0234H164.813V82.7383H163.421V75.7685H166.077C166.887 75.7685 167.502 75.9659 167.923 76.3608C168.351 76.7557 168.565 77.2756 168.565 77.9206C168.565 78.4471 168.417 78.8881 168.121 79.2435C167.831 79.5989 167.41 79.8358 166.857 79.9543L168.594 82.7383H167.054ZM164.813 79.0658H165.959C166.755 79.0658 167.153 78.7137 167.153 78.0095C167.153 77.6738 167.054 77.4138 166.857 77.2296C166.666 77.0387 166.367 76.9433 165.959 76.9433H164.813V79.0658ZM173.167 76.8742V78.6808H175.636V79.747H173.167V81.6227H175.932V82.7383H171.775V75.7685H175.932V76.8742H173.167ZM183.478 81.3364H180.684L180.19 82.7383H178.72L181.286 75.8474H182.876L185.433 82.7383H183.962L183.478 81.3364ZM183.103 80.2801L182.076 77.3382L181.049 80.2801H183.103ZM189.847 81.6721H192.186V82.7383H188.455V75.7685H189.847V81.6721ZM202.934 75.6994C203.783 75.6994 204.487 75.91 205.047 76.3312C205.606 76.7458 205.965 77.3085 206.123 78.0193H204.662C204.524 77.7034 204.303 77.4533 204 77.2691C203.704 77.0782 203.352 76.9828 202.944 76.9828C202.542 76.9828 202.187 77.0749 201.878 77.2592C201.568 77.4435 201.328 77.7067 201.157 78.049C200.986 78.3912 200.9 78.7927 200.9 79.2534C200.9 79.9839 201.095 80.5532 201.483 80.9613C201.878 81.3693 202.414 81.5734 203.092 81.5734C203.592 81.5734 204.02 81.4253 204.375 81.1291C204.737 80.8329 204.971 80.4216 205.076 79.8951H202.717V78.898H206.241V80.2406C206.143 80.7013 205.948 81.1258 205.659 81.5141C205.376 81.9024 205.001 82.2151 204.533 82.452C204.073 82.6823 203.543 82.7975 202.944 82.7975C202.259 82.7975 201.654 82.6494 201.127 82.3533C200.608 82.0505 200.203 81.6326 199.913 81.0995C199.63 80.5598 199.489 79.9444 199.489 79.2534C199.489 78.5623 199.63 77.9502 199.913 77.4171C200.203 76.8775 200.608 76.4562 201.127 76.1535C201.647 75.8507 202.25 75.6994 202.934 75.6994ZM213.187 82.7383L211.558 80.0234H210.946V82.7383H209.554V75.7685H212.21C213.019 75.7685 213.635 75.9659 214.056 76.3608C214.484 76.7557 214.698 77.2756 214.698 77.9206C214.698 78.4471 214.55 78.8881 214.253 79.2435C213.964 79.5989 213.543 79.8358 212.99 79.9543L214.727 82.7383H213.187ZM210.946 79.0658H212.091C212.888 79.0658 213.286 78.7137 213.286 78.0095C213.286 77.6738 213.187 77.4138 212.99 77.2296C212.799 77.0387 212.499 76.9433 212.091 76.9433H210.946V79.0658ZM221.176 75.6697C221.828 75.6697 222.417 75.8211 222.943 76.1239C223.476 76.4266 223.894 76.8511 224.197 77.3974C224.506 77.9371 224.661 78.5492 224.661 79.2336C224.661 79.9181 224.506 80.5335 224.197 81.0797C223.894 81.626 223.476 82.0505 222.943 82.3533C222.417 82.656 221.828 82.8074 221.176 82.8074C220.524 82.8074 219.932 82.656 219.399 82.3533C218.872 82.0505 218.454 81.626 218.145 81.0797C217.842 80.5335 217.691 79.9181 217.691 79.2336C217.691 78.5492 217.842 77.9371 218.145 77.3974C218.454 76.8511 218.872 76.4266 219.399 76.1239C219.932 75.8211 220.524 75.6697 221.176 75.6697ZM221.176 76.9531C220.768 76.9531 220.409 77.0453 220.1 77.2296C219.791 77.4138 219.547 77.6804 219.369 78.0292C219.198 78.3715 219.113 78.7729 219.113 79.2336C219.113 79.6943 219.198 80.0991 219.369 80.4479C219.547 80.7902 219.791 81.0534 220.1 81.2377C220.409 81.422 220.768 81.5141 221.176 81.5141C221.584 81.5141 221.943 81.422 222.252 81.2377C222.561 81.0534 222.802 80.7902 222.973 80.4479C223.15 80.0991 223.239 79.6943 223.239 79.2336C223.239 78.7729 223.15 78.3715 222.973 78.0292C222.802 77.6804 222.561 77.4138 222.252 77.2296C221.943 77.0453 221.584 76.9531 221.176 76.9531ZM237.12 75.7685L235.412 82.7383H233.694L232.391 77.6837L231.078 82.7383H229.37L227.662 75.7685H229.173L230.239 81.1686L231.621 75.7685H233.151L234.543 81.1686L235.61 75.7685H237.12ZM245.082 75.7685V76.8742H243.157V82.7383H241.765V76.8742H239.849V75.7685H245.082ZM253.894 75.7685V82.7383H252.492V79.7075H249.51V82.7383H248.118V75.7685H249.51V78.5919H252.492V75.7685H253.894Z" fill="white"/>
<path d="M32.0107 75.8474H32.0294V75.8288H32.0107V75.8474ZM32.0107 82.7383V82.7569H32.0294V82.7383H32.0107ZM30.6286 82.7383H30.61V82.7569H30.6286V82.7383ZM30.6286 77.9305H30.6473L30.6111 77.9241L30.6286 77.9305ZM28.8615 82.7383V82.7569H28.8745L28.879 82.7447L28.8615 82.7383ZM27.6571 82.7383L27.6396 82.7447L27.6441 82.7569H27.6571V82.7383ZM25.8899 77.9502L25.9074 77.9438L25.8713 77.9502H25.8899ZM25.8899 82.7383V82.7569H25.9086V82.7383H25.8899ZM24.498 82.7383H24.4793V82.7569H24.498V82.7383ZM24.498 75.8474V75.8288H24.4793V75.8474H24.498ZM26.1861 75.8474L26.2034 75.8405L26.1987 75.8288H26.1861V75.8474ZM28.279 81.0304L28.2617 81.0374L28.2792 81.0806L28.2964 81.0372L28.279 81.0304ZM30.3325 75.8474V75.8288H30.3198L30.3151 75.8406L30.3325 75.8474ZM32.0107 75.8474H31.9921V82.7383H32.0107H32.0294V75.8474H32.0107ZM32.0107 82.7383V82.7196H30.6286V82.7383V82.7569H32.0107V82.7383ZM30.6286 82.7383H30.6473V77.9305H30.6286H30.61V82.7383H30.6286ZM30.6286 77.9305L30.6111 77.9241L28.844 82.7318L28.8615 82.7383L28.879 82.7447L30.6461 77.9369L30.6286 77.9305ZM28.8615 82.7383V82.7196H27.6571V82.7383V82.7569H28.8615V82.7383ZM27.6571 82.7383L27.6746 82.7318L25.9074 77.9438L25.8899 77.9502L25.8725 77.9567L27.6396 82.7447L27.6571 82.7383ZM25.8899 77.9502H25.8713V82.7383H25.8899H25.9086V77.9502H25.8899ZM25.8899 82.7383V82.7196H24.498V82.7383V82.7569H25.8899V82.7383ZM24.498 82.7383H24.5166V75.8474H24.498H24.4793V82.7383H24.498ZM24.498 75.8474V75.8661H26.1861V75.8474V75.8288H24.498V75.8474ZM26.1861 75.8474L26.1688 75.8544L28.2617 81.0374L28.279 81.0304L28.2963 81.0234L26.2034 75.8405L26.1861 75.8474ZM28.279 81.0304L28.2964 81.0372L30.3498 75.8543L30.3325 75.8474L30.3151 75.8406L28.2617 81.0235L28.279 81.0304ZM30.3325 75.8474V75.8661H32.0107V75.8474V75.8288H30.3325V75.8474ZM40.5766 76.1239L40.5673 76.14L40.5674 76.1401L40.5766 76.1239ZM41.8304 77.3974L41.8141 77.4064L41.8142 77.4067L41.8304 77.3974ZM41.8304 81.0797L41.8142 81.0706L41.8141 81.0707L41.8304 81.0797ZM40.5766 82.3533L40.5674 82.3371L40.5673 82.3371L40.5766 82.3533ZM37.0325 82.3533L37.0232 82.3694L37.0233 82.3695L37.0325 82.3533ZM35.7787 81.0797L35.7624 81.0888L35.7625 81.0889L35.7787 81.0797ZM35.7787 77.3974L35.7625 77.3882L35.7624 77.3883L35.7787 77.3974ZM37.0325 76.1239L37.0233 76.1077L37.0232 76.1077L37.0325 76.1239ZM37.7334 77.2296L37.743 77.2456H37.743L37.7334 77.2296ZM37.0029 78.0292L36.9863 78.0208L36.9862 78.0209L37.0029 78.0292ZM37.0029 80.4479L36.9861 80.4561L36.9863 80.4565L37.0029 80.4479ZM37.7334 81.2377L37.743 81.2217H37.743L37.7334 81.2377ZM39.8856 81.2377L39.876 81.2217V81.2217L39.8856 81.2377ZM40.6062 80.4479L40.5896 80.4395L40.5896 80.4396L40.6062 80.4479ZM40.6062 78.0292L40.5895 78.0374L40.5897 78.0378L40.6062 78.0292ZM38.8095 75.6697V75.6884C39.458 75.6884 40.0438 75.839 40.5673 76.14L40.5766 76.1239L40.5859 76.1077C40.0564 75.8032 39.4641 75.6511 38.8095 75.6511V75.6697ZM40.5766 76.1239L40.5674 76.1401C41.0975 76.4411 41.513 76.8631 41.8141 77.4064L41.8304 77.3974L41.8467 77.3884C41.5423 76.8391 41.122 76.4121 40.5858 76.1077L40.5766 76.1239ZM41.8304 77.3974L41.8142 77.4067C42.1218 77.9432 42.2758 78.5521 42.2758 79.2336H42.2944H42.313C42.313 78.5462 42.1577 77.9309 41.8466 77.3881L41.8304 77.3974ZM42.2944 79.2336H42.2758C42.2758 79.9152 42.1218 80.5273 41.8142 81.0706L41.8304 81.0797L41.8466 81.0889C42.1577 80.5396 42.313 79.921 42.313 79.2336H42.2944ZM41.8304 81.0797L41.8141 81.0707C41.513 81.614 41.0975 82.036 40.5674 82.3371L40.5766 82.3533L40.5858 82.3695C41.122 82.065 41.5423 81.638 41.8467 81.0888L41.8304 81.0797ZM40.5766 82.3533L40.5673 82.3371C40.0438 82.6381 39.458 82.7887 38.8095 82.7887V82.8074V82.826C39.4641 82.826 40.0564 82.6739 40.5859 82.3694L40.5766 82.3533ZM38.8095 82.8074V82.7887C38.1609 82.7887 37.5718 82.6381 37.0417 82.3371L37.0325 82.3533L37.0233 82.3695C37.5594 82.6739 38.1549 82.826 38.8095 82.826V82.8074ZM37.0325 82.3533L37.0418 82.3371C36.5182 82.0361 36.1027 81.614 35.7949 81.0706L35.7787 81.0797L35.7625 81.0889C36.0734 81.638 36.4937 82.065 37.0232 82.3694L37.0325 82.3533ZM35.7787 81.0797L35.795 81.0707C35.4939 80.5275 35.3432 79.9153 35.3432 79.2336H35.3246H35.3059C35.3059 79.921 35.458 80.5395 35.7624 81.0888L35.7787 81.0797ZM35.3246 79.2336H35.3432C35.3432 78.552 35.4939 77.9431 35.795 77.4065L35.7787 77.3974L35.7624 77.3883C35.458 77.931 35.3059 78.5463 35.3059 79.2336H35.3246ZM35.7787 77.3974L35.7949 77.4066C36.1027 76.8631 36.5182 76.4411 37.0418 76.14L37.0325 76.1239L37.0232 76.1077C36.4937 76.4122 36.0734 76.8391 35.7625 77.3882L35.7787 77.3974ZM37.0325 76.1239L37.0417 76.1401C37.5718 75.839 38.1609 75.6884 38.8095 75.6884V75.6697V75.6511C38.1549 75.6511 37.5594 75.8032 37.0233 76.1077L37.0325 76.1239ZM38.8095 76.9531V76.9345C38.3985 76.9345 38.0365 77.0273 37.7239 77.2135L37.7334 77.2296L37.743 77.2456C38.049 77.0632 38.4043 76.9718 38.8095 76.9718V76.9531ZM37.7334 77.2296L37.7239 77.2135C37.4113 77.3998 37.1654 77.6691 36.9863 78.0208L37.0029 78.0292L37.0195 78.0377C37.1957 77.6917 37.4369 77.4279 37.743 77.2456L37.7334 77.2296ZM37.0029 78.0292L36.9862 78.0209C36.8135 78.3662 36.7275 78.7706 36.7275 79.2336H36.7462H36.7648C36.7648 78.7752 36.85 78.3767 37.0195 78.0376L37.0029 78.0292ZM36.7462 79.2336H36.7275C36.7275 79.6967 36.8135 80.1043 36.9861 80.4561L37.0029 80.4479L37.0196 80.4397C36.8499 80.0939 36.7648 79.692 36.7648 79.2336H36.7462ZM37.0029 80.4479L36.9863 80.4565C37.1655 80.8016 37.4113 81.0675 37.7239 81.2537L37.7334 81.2377L37.743 81.2217C37.4368 81.0393 37.1956 80.7787 37.0194 80.4393L37.0029 80.4479ZM37.7334 81.2377L37.7239 81.2537C38.0365 81.4399 38.3985 81.5328 38.8095 81.5328V81.5141V81.4955C38.4043 81.4955 38.049 81.404 37.743 81.2217L37.7334 81.2377ZM38.8095 81.5141V81.5328C39.2204 81.5328 39.5825 81.4399 39.8951 81.2537L39.8856 81.2377L39.876 81.2217C39.5699 81.404 39.2146 81.4955 38.8095 81.4955V81.5141ZM39.8856 81.2377L39.8951 81.2537C40.2077 81.0675 40.4503 80.8015 40.6229 80.4563L40.6062 80.4479L40.5896 80.4396C40.4199 80.7788 40.1821 81.0393 39.876 81.2217L39.8856 81.2377ZM40.6062 80.4479L40.6228 80.4564C40.8021 80.1045 40.8914 79.6968 40.8914 79.2336H40.8728H40.8541C40.8541 79.6919 40.7658 80.0937 40.5896 80.4395L40.6062 80.4479ZM40.8728 79.2336H40.8914C40.8914 78.7705 40.8021 78.366 40.6228 78.0206L40.6062 78.0292L40.5897 78.0378C40.7658 78.3769 40.8541 78.7753 40.8541 79.2336H40.8728ZM40.6062 78.0292L40.623 78.021C40.4504 77.6692 40.2078 77.3998 39.8951 77.2135L39.8856 77.2296L39.876 77.2456C40.182 77.4279 40.4198 77.6916 40.5895 78.0374L40.6062 78.0292ZM39.8856 77.2296L39.8951 77.2135C39.5825 77.0273 39.2204 76.9345 38.8095 76.9345V76.9531V76.9718C39.2146 76.9718 39.5699 77.0632 39.876 77.2456L39.8856 77.2296ZM51.3082 81.0699L51.2918 81.0609V81.0609L51.3082 81.0699ZM50.0445 82.3039L50.0532 82.3204L50.0533 82.3203L50.0445 82.3039ZM45.6119 82.7383H45.5932V82.7569H45.6119V82.7383ZM45.6119 75.7685V75.7498H45.5932V75.7685H45.6119ZM50.0445 76.2028L50.0358 76.2193L50.036 76.2194L50.0445 76.2028ZM51.3082 77.4171L51.2918 77.4261L51.2919 77.4262L51.3082 77.4171ZM49.7088 80.902L49.696 80.8885L49.6959 80.8886L49.7088 80.902ZM49.7088 77.5751L49.6959 77.5885L49.696 77.5886L49.7088 77.5751ZM47.0038 76.9828V76.9641H46.9852V76.9828H47.0038ZM47.0038 81.4944H46.9852V81.513H47.0038V81.4944ZM51.7425 79.2435H51.7239C51.7239 79.9319 51.5797 80.5375 51.2918 81.0609L51.3082 81.0699L51.3245 81.0789C51.6158 80.5492 51.7612 79.9372 51.7612 79.2435H51.7425ZM51.3082 81.0699L51.2918 81.0609C51.004 81.5841 50.5855 81.9929 50.0357 82.2875L50.0445 82.3039L50.0533 82.3203C50.6092 82.0225 51.0331 81.6087 51.3245 81.0789L51.3082 81.0699ZM50.0445 82.3039L50.0358 82.2874C49.4927 82.5753 48.8443 82.7196 48.0898 82.7196V82.7383V82.7569C48.849 82.7569 49.5037 82.6117 50.0532 82.3204L50.0445 82.3039ZM48.0898 82.7383V82.7196H45.6119V82.7383V82.7569H48.0898V82.7383ZM45.6119 82.7383H45.6305V75.7685H45.6119H45.5932V82.7383H45.6119ZM45.6119 75.7685V75.7871H48.0898V75.7685V75.7498H45.6119V75.7685ZM48.0898 75.7685V75.7871C48.8443 75.7871 49.4927 75.9314 50.0358 76.2193L50.0445 76.2028L50.0532 76.1864C49.5037 75.8951 48.849 75.7498 48.0898 75.7498V75.7685ZM50.0445 76.2028L50.036 76.2194C50.5857 76.5008 51.0041 76.903 51.2918 77.4261L51.3082 77.4171L51.3245 77.4081C51.033 76.8783 50.609 76.4709 50.053 76.1863L50.0445 76.2028ZM51.3082 77.4171L51.2919 77.4262C51.5797 77.9429 51.7239 78.5485 51.7239 79.2435H51.7425H51.7612C51.7612 78.5432 51.6158 77.9312 51.3244 77.4081L51.3082 77.4171ZM47.9713 81.4944V81.513C48.7249 81.513 49.3093 81.3147 49.7218 80.9154L49.7088 80.902L49.6959 80.8886C49.2923 81.2792 48.7184 81.4757 47.9713 81.4757V81.4944ZM49.7088 80.902L49.7217 80.9155C50.1409 80.5163 50.3494 79.9581 50.3494 79.2435H50.3308H50.3122C50.3122 79.9505 50.1061 80.498 49.696 80.8885L49.7088 80.902ZM50.3308 79.2435H50.3494C50.3494 78.5224 50.1409 77.9608 49.7217 77.5616L49.7088 77.5751L49.696 77.5886C50.106 77.9791 50.3122 78.5298 50.3122 79.2435H50.3308ZM49.7088 77.5751L49.7218 77.5617C49.3093 77.1625 48.7249 76.9641 47.9713 76.9641V76.9828V77.0014C48.7184 77.0014 49.2923 77.1979 49.6959 77.5885L49.7088 77.5751ZM47.9713 76.9828V76.9641H47.0038V76.9828V77.0014H47.9713V76.9828ZM47.0038 76.9828H46.9852V81.4944H47.0038H47.0225V76.9828H47.0038ZM47.0038 81.4944V81.513H47.9713V81.4944V81.4757H47.0038V81.4944ZM56.4473 76.8742V76.8555H56.4286V76.8742H56.4473ZM56.4473 78.6808H56.4286V78.6994H56.4473V78.6808ZM58.9153 78.6808H58.934V78.6621H58.9153V78.6808ZM58.9153 79.747V79.7656H58.934V79.747H58.9153ZM56.4473 79.747V79.7283H56.4286V79.747H56.4473ZM56.4473 81.6227H56.4286V81.6414H56.4473V81.6227ZM59.2115 81.6227H59.2302V81.6041H59.2115V81.6227ZM59.2115 82.7383V82.7569H59.2302V82.7383H59.2115ZM55.0553 82.7383H55.0366V82.7569H55.0553V82.7383ZM55.0553 75.7685V75.7498H55.0366V75.7685H55.0553ZM59.2115 75.7685H59.2302V75.7498H59.2115V75.7685ZM59.2115 76.8742V76.8928H59.2302V76.8742H59.2115ZM56.4473 76.8742H56.4286V78.6808H56.4473H56.4659V76.8742H56.4473ZM56.4473 78.6808V78.6994H58.9153V78.6808V78.6621H56.4473V78.6808ZM58.9153 78.6808H58.8967V79.747H58.9153H58.934V78.6808H58.9153ZM58.9153 79.747V79.7283H56.4473V79.747V79.7656H58.9153V79.747ZM56.4473 79.747H56.4286V81.6227H56.4473H56.4659V79.747H56.4473ZM56.4473 81.6227V81.6414H59.2115V81.6227V81.6041H56.4473V81.6227ZM59.2115 81.6227H59.1929V82.7383H59.2115H59.2302V81.6227H59.2115ZM59.2115 82.7383V82.7196H55.0553V82.7383V82.7569H59.2115V82.7383ZM55.0553 82.7383H55.0739V75.7685H55.0553H55.0366V82.7383H55.0553ZM55.0553 75.7685V75.7871H59.2115V75.7685V75.7498H55.0553V75.7685ZM59.2115 75.7685H59.1929V76.8742H59.2115H59.2302V75.7685H59.2115ZM59.2115 76.8742V76.8555H56.4473V76.8742V76.8928H59.2115V76.8742ZM66.1457 82.7383L66.1297 82.7479L66.1351 82.7569H66.1457V82.7383ZM64.5168 80.0234L64.5328 80.0138L64.5273 80.0048H64.5168V80.0234ZM63.9047 80.0234V80.0048H63.886V80.0234H63.9047ZM63.9047 82.7383V82.7569H63.9233V82.7383H63.9047ZM62.5127 82.7383H62.4941V82.7569H62.5127V82.7383ZM62.5127 75.7685V75.7498H62.4941V75.7685H62.5127ZM67.0145 76.3608L67.0017 76.3744L67.0018 76.3745L67.0145 76.3608ZM67.2119 79.2435L67.1976 79.2316L67.1974 79.2317L67.2119 79.2435ZM65.9482 79.9543L65.9443 79.9361L65.9184 79.9416L65.9324 79.9642L65.9482 79.9543ZM67.6858 82.7383V82.7569H67.7194L67.7016 82.7284L67.6858 82.7383ZM63.9047 79.0658H63.886V79.0844H63.9047V79.0658ZM65.9482 77.2296L65.9351 77.2428L65.9355 77.2432L65.9482 77.2296ZM63.9047 76.9433V76.9246H63.886V76.9433H63.9047ZM66.1457 82.7383L66.1617 82.7287L64.5328 80.0138L64.5168 80.0234L64.5008 80.033L66.1297 82.7479L66.1457 82.7383ZM64.5168 80.0234V80.0048H63.9047V80.0234V80.0421H64.5168V80.0234ZM63.9047 80.0234H63.886V82.7383H63.9047H63.9233V80.0234H63.9047ZM63.9047 82.7383V82.7196H62.5127V82.7383V82.7569H63.9047V82.7383ZM62.5127 82.7383H62.5313V75.7685H62.5127H62.4941V82.7383H62.5127ZM62.5127 75.7685V75.7871H65.1683V75.7685V75.7498H62.5127V75.7685ZM65.1683 75.7685V75.7871C65.975 75.7871 66.5851 75.9839 67.0017 76.3744L67.0145 76.3608L67.0272 76.3472C66.6013 75.948 65.9807 75.7498 65.1683 75.7498V75.7685ZM67.0145 76.3608L67.0018 76.3745C67.4253 76.7655 67.6375 77.2802 67.6375 77.9206H67.6561H67.6748C67.6748 77.2711 67.4592 76.7459 67.0271 76.3471L67.0145 76.3608ZM67.6561 77.9206H67.6375C67.6375 78.4434 67.4906 78.88 67.1976 79.2316L67.2119 79.2435L67.2262 79.2554C67.5256 78.8962 67.6748 78.4509 67.6748 77.9206H67.6561ZM67.2119 79.2435L67.1974 79.2317C66.9111 79.5831 66.494 79.8183 65.9443 79.9361L65.9482 79.9543L65.9522 79.9725C66.5081 79.8534 66.9335 79.6147 67.2263 79.2553L67.2119 79.2435ZM65.9482 79.9543L65.9324 79.9642L67.6699 82.7482L67.6858 82.7383L67.7016 82.7284L65.9641 79.9444L65.9482 79.9543ZM67.6858 82.7383V82.7196H66.1457V82.7383V82.7569H67.6858V82.7383ZM63.9047 79.0658V79.0844H65.0499V79.0658V79.0472H63.9047V79.0658ZM65.0499 79.0658V79.0844C65.4504 79.0844 65.7543 78.9959 65.9581 78.8157C66.1624 78.635 66.2631 78.3651 66.2631 78.0095H66.2444H66.2258C66.2258 78.3581 66.1273 78.6163 65.9334 78.7878C65.7391 78.9596 65.4457 79.0472 65.0499 79.0472V79.0658ZM66.2444 78.0095H66.2631C66.2631 77.67 66.1631 77.4046 65.961 77.2159L65.9482 77.2296L65.9355 77.2432C66.1283 77.4231 66.2258 77.6776 66.2258 78.0095H66.2444ZM65.9482 77.2296L65.9614 77.2164C65.7656 77.0206 65.4604 76.9246 65.0499 76.9246V76.9433V76.9619C65.4555 76.9619 65.7491 77.0568 65.9351 77.2427L65.9482 77.2296ZM65.0499 76.9433V76.9246H63.9047V76.9433V76.9619H65.0499V76.9433ZM63.9047 76.9433H63.886V79.0658H63.9047H63.9233V76.9433H63.9047ZM76.7703 82.7383V82.7569H76.789V82.7383H76.7703ZM75.3783 82.7383L75.3628 82.7485L75.3683 82.7569H75.3783V82.7383ZM72.2587 77.9996L72.2743 77.9893L72.2401 77.9374V77.9996H72.2587ZM72.2587 82.7383V82.7569H72.2773V82.7383H72.2587ZM70.8667 82.7383H70.8481V82.7569H70.8667V82.7383ZM70.8667 75.7685V75.7498H70.8481V75.7685H70.8667ZM72.2587 75.7685L72.2743 75.7583L72.2688 75.7498H72.2587V75.7685ZM75.3783 80.5466L75.3627 80.5568L75.397 80.6093V80.5466H75.3783ZM75.3783 75.7685V75.7498H75.3597V75.7685H75.3783ZM76.7703 75.7685H76.789V75.7498H76.7703V75.7685ZM76.7703 82.7383V82.7196H75.3783V82.7383V82.7569H76.7703V82.7383ZM75.3783 82.7383L75.3939 82.728L72.2743 77.9893L72.2587 77.9996L72.2431 78.0098L75.3628 82.7485L75.3783 82.7383ZM72.2587 77.9996H72.2401V82.7383H72.2587H72.2773V77.9996H72.2587ZM72.2587 82.7383V82.7196H70.8667V82.7383V82.7569H72.2587V82.7383ZM70.8667 82.7383H70.8854V75.7685H70.8667H70.8481V82.7383H70.8667ZM70.8667 75.7685V75.7871H72.2587V75.7685V75.7498H70.8667V75.7685ZM72.2587 75.7685L72.2431 75.7787L75.3627 80.5568L75.3783 80.5466L75.3939 80.5364L72.2743 75.7583L72.2587 75.7685ZM75.3783 80.5466H75.397V75.7685H75.3783H75.3597V80.5466H75.3783ZM75.3783 75.7685V75.7871H76.7703V75.7685V75.7498H75.3783V75.7685ZM76.7703 75.7685H76.7517V82.7383H76.7703H76.789V75.7685H76.7703ZM89.2425 81.8202L89.2585 81.8298L89.2586 81.8296L89.2425 81.8202ZM88.4528 82.5408L88.4612 82.5574L88.4615 82.5573L88.4528 82.5408ZM85.8563 82.5606L85.8488 82.5776L85.8491 82.5777L85.8563 82.5606ZM84.9185 81.83L84.9034 81.841L84.9036 81.8412L84.9185 81.83ZM84.5236 80.7243V80.7057H84.5034L84.505 80.7258L84.5236 80.7243ZM86.0044 80.7243L86.0229 80.7222L86.021 80.7057H86.0044V80.7243ZM86.3401 81.4351L86.3269 81.4483L86.3274 81.4488L86.3401 81.4351ZM87.7814 81.4845L87.7683 81.4713V81.4713L87.7814 81.4845ZM87.8308 80.3492L87.8167 80.3614L87.817 80.3617L87.8308 80.3492ZM87.3569 80.0037L87.3646 79.9867V79.9867L87.3569 80.0037ZM86.5672 79.7075L86.5613 79.7252V79.7252L86.5672 79.7075ZM85.5009 79.283L85.4923 79.2995L85.4926 79.2997L85.5009 79.283ZM84.7901 78.661L84.7749 78.6718L84.7751 78.672L84.7901 78.661ZM85.1455 76.193L85.1572 76.2075L85.1572 76.2075L85.1455 76.193ZM88.6206 76.2028L88.6088 76.2173L88.6089 76.2174L88.6206 76.2028ZM89.3709 77.6245V77.6431H89.3915L89.3894 77.6226L89.3709 77.6245ZM87.8703 77.6245L87.8519 77.6274L87.8544 77.6431H87.8703V77.6245ZM87.5544 77.0124L87.5415 77.0258L87.5417 77.0261L87.5544 77.0124ZM86.2315 76.9729L86.2434 76.9872L86.2438 76.9869L86.2315 76.9729ZM86.1723 78.0687L86.1581 78.0809L86.1587 78.0815L86.1723 78.0687ZM86.6363 78.3945L86.6284 78.4114L86.6286 78.4115L86.6363 78.3945ZM87.4063 78.6808L87.4125 78.6632L87.4121 78.6631L87.4063 78.6808ZM88.4922 79.125L88.4839 79.1417L88.4841 79.1418L88.4922 79.125ZM89.2129 79.747L89.2281 79.7362V79.7362L89.2129 79.747ZM89.5091 80.8329H89.4904C89.4904 81.1851 89.4025 81.5109 89.2265 81.8107L89.2425 81.8202L89.2586 81.8296C89.438 81.524 89.5277 81.1916 89.5277 80.8329H89.5091ZM89.2425 81.8202L89.2265 81.8106C89.0508 82.1034 88.7903 82.3414 88.444 82.5244L88.4528 82.5408L88.4615 82.5573C88.8129 82.3717 89.0788 82.1292 89.2585 81.8298L89.2425 81.8202ZM88.4528 82.5408L88.4443 82.5242C88.0987 82.7003 87.6773 82.7887 87.1792 82.7887V82.8074V82.826C87.6816 82.826 88.1091 82.7368 88.4612 82.5574L88.4528 82.5408ZM87.1792 82.8074V82.7887C86.6877 82.7887 86.2493 82.7068 85.8636 82.5434L85.8563 82.5606L85.8491 82.5777C86.24 82.7434 86.6835 82.826 87.1792 82.826V82.8074ZM85.8563 82.5606L85.8639 82.5435C85.4783 82.3736 85.1683 82.132 84.9334 81.8188L84.9185 81.83L84.9036 81.8412C85.1426 82.1599 85.4578 82.4053 85.8488 82.5776L85.8563 82.5606ZM84.9185 81.83L84.9335 81.819C84.7054 81.5062 84.5748 81.141 84.5422 80.7229L84.5236 80.7243L84.505 80.7258C84.5382 81.1502 84.6709 81.5221 84.9034 81.841L84.9185 81.83ZM84.5236 80.7243V80.743H86.0044V80.7243V80.7057H84.5236V80.7243ZM86.0044 80.7243L85.9859 80.7265C86.0193 81.0134 86.1329 81.2543 86.3269 81.4483L86.3401 81.4351L86.3533 81.422C86.1656 81.2342 86.0554 81.0013 86.0229 80.7222L86.0044 80.7243ZM86.3401 81.4351L86.3274 81.4488C86.5289 81.6369 86.7938 81.7302 87.12 81.7302V81.7116V81.6929C86.8013 81.6929 86.5462 81.602 86.3528 81.4215L86.3401 81.4351ZM87.12 81.7116V81.7302C87.4127 81.7302 87.6387 81.6536 87.7946 81.4977L87.7814 81.4845L87.7683 81.4713C87.6215 81.6181 87.4064 81.6929 87.12 81.6929V81.7116ZM87.7814 81.4845L87.7946 81.4977C87.9564 81.3359 88.037 81.1303 88.037 80.8823H88.0184H87.9997C87.9997 81.1214 87.9224 81.3172 87.7683 81.4713L87.7814 81.4845ZM88.0184 80.8823H88.037C88.037 80.6613 87.9733 80.4789 87.8446 80.3367L87.8308 80.3492L87.817 80.3617C87.9384 80.4959 87.9997 80.6689 87.9997 80.8823H88.0184ZM87.8308 80.3492L87.8449 80.337C87.7179 80.19 87.5577 80.0732 87.3646 79.9867L87.3569 80.0037L87.3493 80.0207C87.5379 80.1052 87.6936 80.2188 87.8167 80.3614L87.8308 80.3492ZM87.3569 80.0037L87.3646 79.9867C87.1729 79.9007 86.909 79.8018 86.573 79.6898L86.5672 79.7075L86.5613 79.7252C86.8967 79.837 87.1593 79.9355 87.3493 80.0207L87.3569 80.0037ZM86.5672 79.7075L86.573 79.6898C86.1391 79.5452 85.7846 79.404 85.5093 79.2663L85.5009 79.283L85.4926 79.2997C85.7701 79.4384 86.1264 79.5802 86.5613 79.7252L86.5672 79.7075ZM85.5009 79.283L85.5096 79.2665C85.2359 79.1231 85.0011 78.9177 84.8052 78.65L84.7901 78.661L84.7751 78.672C84.9741 78.944 85.2132 79.1533 85.4923 79.2995L85.5009 79.283ZM84.7901 78.661L84.8054 78.6503C84.6173 78.3844 84.5225 78.0364 84.5225 77.6047H84.5038H84.4852C84.4852 78.0417 84.5812 78.398 84.7749 78.6718L84.7901 78.661ZM84.5038 77.6047H84.5225C84.5225 77.0108 84.7343 76.5459 85.1572 76.2075L85.1455 76.193L85.1339 76.1784C84.7012 76.5246 84.4852 77.0007 84.4852 77.6047H84.5038ZM85.1455 76.193L85.1572 76.2075C85.5875 75.862 86.1556 75.6884 86.8633 75.6884V75.6697V75.6511C86.1495 75.6511 85.5724 75.8263 85.1339 76.1784L85.1455 76.193ZM86.8633 75.6697V75.6884C87.5975 75.6884 88.1786 75.8654 88.6088 76.2173L88.6206 76.2028L88.6324 76.1884C88.1938 75.8295 87.6034 75.6511 86.8633 75.6511V75.6697ZM88.6206 76.2028L88.6089 76.2174C89.0457 76.5695 89.2936 77.0387 89.3523 77.6263L89.3709 77.6245L89.3894 77.6226C89.3297 77.0256 89.0773 76.547 88.6323 76.1883L88.6206 76.2028ZM89.3709 77.6245V77.6058H87.8703V77.6245V77.6431H89.3709V77.6245ZM87.8703 77.6245L87.8887 77.6215C87.8486 77.3677 87.7415 77.1597 87.567 76.9987L87.5544 77.0124L87.5417 77.0261C87.7095 77.1809 87.813 77.381 87.8519 77.6274L87.8703 77.6245ZM87.5544 77.0124L87.5673 76.9989C87.3919 76.8303 87.1532 76.7469 86.8534 76.7469V76.7656V76.7842C87.146 76.7842 87.3746 76.8654 87.5415 77.0258L87.5544 77.0124ZM86.8534 76.7656V76.7469C86.5933 76.7469 86.3813 76.817 86.2192 76.9589L86.2315 76.9729L86.2438 76.9869C86.3976 76.8523 86.6002 76.7842 86.8534 76.7842V76.7656ZM86.2315 76.9729L86.2196 76.9586C86.0563 77.0946 85.9759 77.2946 85.9759 77.5553H85.9946H86.0132C86.0132 77.3027 86.0908 77.1144 86.2434 76.9872L86.2315 76.9729ZM85.9946 77.5553H85.9759C85.9759 77.7632 86.0364 77.9388 86.1581 78.0808L86.1723 78.0687L86.1864 78.0566C86.0712 77.9221 86.0132 77.7555 86.0132 77.5553H85.9946ZM86.1723 78.0687L86.1587 78.0815C86.2856 78.2151 86.4422 78.325 86.6284 78.4114L86.6363 78.3945L86.6441 78.3776C86.4617 78.2929 86.309 78.1856 86.1858 78.0559L86.1723 78.0687ZM86.6363 78.3945L86.6286 78.4115C86.8203 78.4974 87.0777 78.5931 87.4005 78.6985L87.4063 78.6808L87.4121 78.6631C87.0899 78.5579 86.8339 78.4627 86.6439 78.3775L86.6363 78.3945ZM87.4063 78.6808L87.4001 78.6984C87.8472 78.8562 88.2084 79.004 88.4839 79.1417L88.4922 79.125L88.5006 79.1084C88.2232 78.9697 87.8604 78.8213 87.4125 78.6632L87.4063 78.6808ZM88.4922 79.125L88.4841 79.1418C88.7641 79.2785 89.002 79.4837 89.1977 79.7578L89.2129 79.747L89.2281 79.7362C89.029 79.4574 88.7864 79.248 88.5004 79.1083L88.4922 79.125ZM89.2129 79.747L89.1977 79.7578C89.3923 80.0302 89.4904 80.3881 89.4904 80.8329H89.5091H89.5277C89.5277 80.3827 89.4284 80.0166 89.2281 79.7362L89.2129 79.747ZM97.84 76.1239L97.8307 76.14L97.8308 76.1401L97.84 76.1239ZM99.0937 77.3974L99.0774 77.4064L99.0776 77.4067L99.0937 77.3974ZM99.0937 81.0797L99.0775 81.0706L99.0774 81.0707L99.0937 81.0797ZM97.84 82.3533L97.8308 82.3371L97.8307 82.3371L97.84 82.3533ZM94.2958 82.3533L94.2865 82.3694L94.2866 82.3695L94.2958 82.3533ZM93.042 81.0797L93.0257 81.0888L93.0258 81.0889L93.042 81.0797ZM93.042 77.3974L93.0258 77.3882L93.0258 77.3883L93.042 77.3974ZM94.2958 76.1239L94.2866 76.1077L94.2865 76.1077L94.2958 76.1239ZM94.9967 77.2296L95.0063 77.2456V77.2456L94.9967 77.2296ZM94.2662 78.0292L94.2496 78.0208L94.2495 78.0209L94.2662 78.0292ZM94.2662 80.4479L94.2495 80.4561L94.2497 80.4565L94.2662 80.4479ZM94.9967 81.2377L95.0063 81.2217V81.2217L94.9967 81.2377ZM97.1489 81.2377L97.1394 81.2217V81.2217L97.1489 81.2377ZM97.8696 80.4479L97.853 80.4395L97.8529 80.4396L97.8696 80.4479ZM97.8696 78.0292L97.8528 78.0374L97.853 78.0378L97.8696 78.0292ZM96.0728 75.6697V75.6884C96.7214 75.6884 97.3072 75.839 97.8307 76.14L97.84 76.1239L97.8493 76.1077C97.3197 75.8032 96.7274 75.6511 96.0728 75.6511V75.6697ZM97.84 76.1239L97.8308 76.1401C98.3608 76.4411 98.7763 76.8631 99.0774 77.4064L99.0937 77.3974L99.11 77.3884C98.8057 76.8391 98.3853 76.4121 97.8492 76.1077L97.84 76.1239ZM99.0937 77.3974L99.0776 77.4067C99.3851 77.9432 99.5391 78.5521 99.5391 79.2336H99.5577H99.5764C99.5764 78.5462 99.421 77.9309 99.1099 77.3881L99.0937 77.3974ZM99.5577 79.2336H99.5391C99.5391 79.9152 99.3851 80.5273 99.0775 81.0706L99.0937 81.0797L99.11 81.0889C99.421 80.5396 99.5764 79.921 99.5764 79.2336H99.5577ZM99.0937 81.0797L99.0774 81.0707C98.7763 81.614 98.3608 82.036 97.8308 82.3371L97.84 82.3533L97.8492 82.3695C98.3853 82.065 98.8057 81.638 99.11 81.0888L99.0937 81.0797ZM97.84 82.3533L97.8307 82.3371C97.3072 82.6381 96.7214 82.7887 96.0728 82.7887V82.8074V82.826C96.7274 82.826 97.3197 82.6739 97.8493 82.3694L97.84 82.3533ZM96.0728 82.8074V82.7887C95.4243 82.7887 94.8351 82.6381 94.305 82.3371L94.2958 82.3533L94.2866 82.3695C94.8227 82.6739 95.4182 82.826 96.0728 82.826V82.8074ZM94.2958 82.3533L94.3051 82.3371C93.7816 82.0361 93.366 81.614 93.0583 81.0706L93.042 81.0797L93.0258 81.0889C93.3367 81.638 93.757 82.065 94.2865 82.3694L94.2958 82.3533ZM93.042 81.0797L93.0583 81.0707C92.7573 80.5275 92.6066 79.9153 92.6066 79.2336H92.5879H92.5693C92.5693 79.921 92.7213 80.5395 93.0257 81.0888L93.042 81.0797ZM92.5879 79.2336H92.6066C92.6066 78.552 92.7573 77.9431 93.0583 77.4065L93.042 77.3974L93.0258 77.3883C92.7213 77.931 92.5693 78.5463 92.5693 79.2336H92.5879ZM93.042 77.3974L93.0583 77.4066C93.366 76.8631 93.7816 76.4411 94.3051 76.14L94.2958 76.1239L94.2865 76.1077C93.757 76.4122 93.3367 76.8391 93.0258 77.3882L93.042 77.3974ZM94.2958 76.1239L94.305 76.1401C94.8351 75.839 95.4243 75.6884 96.0728 75.6884V75.6697V75.6511C95.4182 75.6511 94.8227 75.8032 94.2866 76.1077L94.2958 76.1239ZM96.0728 76.9531V76.9345C95.6619 76.9345 95.2998 77.0273 94.9872 77.2135L94.9967 77.2296L95.0063 77.2456C95.3124 77.0632 95.6677 76.9718 96.0728 76.9718V76.9531ZM94.9967 77.2296L94.9872 77.2135C94.6746 77.3998 94.4287 77.6691 94.2496 78.0208L94.2662 78.0292L94.2828 78.0377C94.4591 77.6917 94.7002 77.4279 95.0063 77.2456L94.9967 77.2296ZM94.2662 78.0292L94.2495 78.0209C94.0769 78.3662 93.9909 78.7706 93.9909 79.2336H94.0095H94.0282C94.0282 78.7752 94.1133 78.3767 94.2829 78.0376L94.2662 78.0292ZM94.0095 79.2336H93.9909C93.9909 79.6967 94.0769 80.1043 94.2495 80.4561L94.2662 80.4479L94.2829 80.4397C94.1133 80.0939 94.0282 79.692 94.0282 79.2336H94.0095ZM94.2662 80.4479L94.2497 80.4565C94.4288 80.8016 94.6747 81.0675 94.9872 81.2537L94.9967 81.2377L95.0063 81.2217C94.7002 81.0393 94.459 80.7787 94.2828 80.4393L94.2662 80.4479ZM94.9967 81.2377L94.9872 81.2537C95.2998 81.4399 95.6619 81.5328 96.0728 81.5328V81.5141V81.4955C95.6677 81.4955 95.3124 81.404 95.0063 81.2217L94.9967 81.2377ZM96.0728 81.5141V81.5328C96.4838 81.5328 96.8459 81.4399 97.1584 81.2537L97.1489 81.2377L97.1394 81.2217C96.8333 81.404 96.478 81.4955 96.0728 81.4955V81.5141ZM97.1489 81.2377L97.1584 81.2537C97.471 81.0675 97.7136 80.8015 97.8863 80.4563L97.8696 80.4479L97.8529 80.4396C97.6833 80.7788 97.4454 81.0393 97.1394 81.2217L97.1489 81.2377ZM97.8696 80.4479L97.8862 80.4564C98.0654 80.1045 98.1548 79.6968 98.1548 79.2336H98.1361H98.1175C98.1175 79.6919 98.0291 80.0937 97.853 80.4395L97.8696 80.4479ZM98.1361 79.2336H98.1548C98.1548 78.7705 98.0654 78.366 97.8861 78.0206L97.8696 78.0292L97.853 78.0378C98.0291 78.3769 98.1175 78.7753 98.1175 79.2336H98.1361ZM97.8696 78.0292L97.8863 78.021C97.7137 77.6692 97.4711 77.3998 97.1584 77.2135L97.1489 77.2296L97.1394 77.2456C97.4453 77.4279 97.6832 77.6916 97.8528 78.0374L97.8696 78.0292ZM97.1489 77.2296L97.1584 77.2135C96.8459 77.0273 96.4838 76.9345 96.0728 76.9345V76.9531V76.9718C96.478 76.9718 96.8333 77.0632 97.1394 77.2456L97.1489 77.2296ZM104.267 81.6721H104.249V81.6907H104.267V81.6721ZM106.607 81.6721H106.626V81.6534H106.607V81.6721ZM106.607 82.7383V82.7569H106.626V82.7383H106.607ZM102.875 82.7383H102.857V82.7569H102.875V82.7383ZM102.875 75.7685V75.7498H102.857V75.7685H102.875ZM104.267 75.7685H104.286V75.7498H104.267V75.7685ZM104.267 81.6721V81.6907H106.607V81.6721V81.6534H104.267V81.6721ZM106.607 81.6721H106.588V82.7383H106.607H106.626V81.6721H106.607ZM106.607 82.7383V82.7196H102.875V82.7383V82.7569H106.607V82.7383ZM102.875 82.7383H102.894V75.7685H102.875H102.857V82.7383H102.875ZM102.875 75.7685V75.7871H104.267V75.7685V75.7498H102.875V75.7685ZM104.267 75.7685H104.249V81.6721H104.267H104.286V75.7685H104.267ZM111.049 75.7685H111.067V75.7498H111.049V75.7685ZM111.404 81.0896L111.39 81.1018L111.39 81.1021L111.404 81.0896ZM113.477 81.0896L113.463 81.0773L113.463 81.0773L113.477 81.0896ZM113.842 75.7685V75.7498H113.824V75.7685H113.842ZM115.225 75.7685H115.243V75.7498H115.225V75.7685ZM114.859 81.4944L114.843 81.4855L114.843 81.4856L114.859 81.4944ZM113.862 82.4816L113.854 82.465L113.854 82.465L113.862 82.4816ZM110.417 82.0571L110.43 82.0439L110.417 82.0571ZM109.666 75.7685V75.7498H109.648V75.7685H109.666ZM111.049 75.7685H111.03V79.8556H111.049H111.067V75.7685H111.049ZM111.049 79.8556H111.03C111.03 80.4041 111.149 80.8206 111.39 81.1017L111.404 81.0896L111.418 81.0775C111.185 80.8058 111.067 80.3995 111.067 79.8556H111.049ZM111.404 81.0896L111.39 81.1021C111.638 81.3768 111.992 81.513 112.45 81.513V81.4944V81.4757C112 81.4757 111.657 81.3421 111.418 81.0771L111.404 81.0896ZM112.45 81.4944V81.513C112.902 81.513 113.25 81.3767 113.491 81.1019L113.477 81.0896L113.463 81.0773C113.231 81.3422 112.894 81.4757 112.45 81.4757V81.4944ZM113.477 81.0896L113.491 81.1019C113.739 80.8208 113.861 80.4042 113.861 79.8556H113.842H113.824C113.824 80.3994 113.703 80.8056 113.463 81.0773L113.477 81.0896ZM113.842 79.8556H113.861V75.7685H113.842H113.824V79.8556H113.842ZM113.842 75.7685V75.7871H115.225V75.7685V75.7498H113.842V75.7685ZM115.225 75.7685H115.206V79.8556H115.225H115.243V75.7685H115.225ZM115.225 79.8556H115.206C115.206 80.4983 115.085 81.0413 114.843 81.4855L114.859 81.4944L114.876 81.5033C115.121 81.0524 115.243 80.5029 115.243 79.8556H115.225ZM114.859 81.4944L114.843 81.4856C114.608 81.9233 114.278 82.2496 113.854 82.465L113.862 82.4816L113.871 82.4982C114.302 82.2792 114.637 81.9474 114.876 81.5032L114.859 81.4944ZM113.862 82.4816L113.854 82.465C113.435 82.6807 112.958 82.7887 112.421 82.7887V82.8074V82.826C112.963 82.826 113.447 82.7169 113.871 82.4982L113.862 82.4816ZM112.421 82.8074V82.7887C111.589 82.7887 110.926 82.54 110.43 82.0439L110.417 82.0571L110.404 82.0703C110.908 82.5746 111.581 82.826 112.421 82.826V82.8074ZM110.417 82.0571L110.43 82.0439C109.934 81.5483 109.685 80.82 109.685 79.8556H109.666H109.648C109.648 80.8261 109.899 81.5655 110.404 82.0703L110.417 82.0571ZM109.666 79.8556H109.685V75.7685H109.666H109.648V79.8556H109.666ZM109.666 75.7685V75.7871H111.049V75.7685V75.7498H109.666V75.7685ZM123.454 75.7685H123.473V75.7498H123.454V75.7685ZM123.454 76.8742V76.8928H123.473V76.8742H123.454ZM121.529 76.8742V76.8555H121.51V76.8742H121.529ZM121.529 82.7383V82.7569H121.548V82.7383H121.529ZM120.137 82.7383H120.119V82.7569H120.137V82.7383ZM120.137 76.8742H120.156V76.8555H120.137V76.8742ZM118.222 76.8742H118.203V76.8928H118.222V76.8742ZM118.222 75.7685V75.7498H118.203V75.7685H118.222ZM123.454 75.7685H123.436V76.8742H123.454H123.473V75.7685H123.454ZM123.454 76.8742V76.8555H121.529V76.8742V76.8928H123.454V76.8742ZM121.529 76.8742H121.51V82.7383H121.529H121.548V76.8742H121.529ZM121.529 82.7383V82.7196H120.137V82.7383V82.7569H121.529V82.7383ZM120.137 82.7383H120.156V76.8742H120.137H120.119V82.7383H120.137ZM120.137 76.8742V76.8555H118.222V76.8742V76.8928H120.137V76.8742ZM118.222 76.8742H118.241V75.7685H118.222H118.203V76.8742H118.222ZM118.222 75.7685V75.7871H123.454V75.7685V75.7498H118.222V75.7685ZM127.883 75.7685H127.902V75.7498H127.883V75.7685ZM127.883 82.7383V82.7569H127.902V82.7383H127.883ZM126.491 82.7383H126.472V82.7569H126.491V82.7383ZM126.491 75.7685V75.7498H126.472V75.7685H126.491ZM127.883 75.7685H127.864V82.7383H127.883H127.902V75.7685H127.883ZM127.883 82.7383V82.7196H126.491V82.7383V82.7569H127.883V82.7383ZM126.491 82.7383H126.51V75.7685H126.491H126.472V82.7383H126.491ZM126.491 75.7685V75.7871H127.883V75.7685V75.7498H126.491V75.7685ZM136.448 76.1239L136.439 76.14L136.439 76.1401L136.448 76.1239ZM137.702 77.3974L137.685 77.4064L137.685 77.4067L137.702 77.3974ZM137.702 81.0797L137.685 81.0706L137.685 81.0707L137.702 81.0797ZM136.448 82.3533L136.439 82.3371L136.439 82.3371L136.448 82.3533ZM132.904 82.3533L132.894 82.3694L132.894 82.3695L132.904 82.3533ZM131.65 81.0797L131.634 81.0888L131.634 81.0889L131.65 81.0797ZM131.65 77.3974L131.634 77.3882L131.634 77.3883L131.65 77.3974ZM132.904 76.1239L132.894 76.1077L132.894 76.1077L132.904 76.1239ZM133.605 77.2296L133.614 77.2456V77.2456L133.605 77.2296ZM132.874 78.0292L132.857 78.0208L132.857 78.0209L132.874 78.0292ZM132.874 80.4479L132.857 80.4561L132.858 80.4565L132.874 80.4479ZM133.605 81.2377L133.614 81.2217V81.2217L133.605 81.2377ZM135.757 81.2377L135.747 81.2217V81.2217L135.757 81.2377ZM136.477 80.4479L136.461 80.4395L136.461 80.4396L136.477 80.4479ZM136.477 78.0292L136.461 78.0374L136.461 78.0378L136.477 78.0292ZM134.681 75.6697V75.6884C135.329 75.6884 135.915 75.839 136.439 76.14L136.448 76.1239L136.457 76.1077C135.928 75.8032 135.335 75.6511 134.681 75.6511V75.6697ZM136.448 76.1239L136.439 76.1401C136.969 76.4411 137.384 76.8631 137.685 77.4064L137.702 77.3974L137.718 77.3884C137.414 76.8391 136.993 76.4121 136.457 76.1077L136.448 76.1239ZM137.702 77.3974L137.685 77.4067C137.993 77.9432 138.147 78.5521 138.147 79.2336H138.166H138.184C138.184 78.5462 138.029 77.9309 137.718 77.3881L137.702 77.3974ZM138.166 79.2336H138.147C138.147 79.9152 137.993 80.5273 137.685 81.0706L137.702 81.0797L137.718 81.0889C138.029 80.5396 138.184 79.921 138.184 79.2336H138.166ZM137.702 81.0797L137.685 81.0707C137.384 81.614 136.969 82.036 136.439 82.3371L136.448 82.3533L136.457 82.3695C136.993 82.065 137.414 81.638 137.718 81.0888L137.702 81.0797ZM136.448 82.3533L136.439 82.3371C135.915 82.6381 135.329 82.7887 134.681 82.7887V82.8074V82.826C135.335 82.826 135.928 82.6739 136.457 82.3694L136.448 82.3533ZM134.681 82.8074V82.7887C134.032 82.7887 133.443 82.6381 132.913 82.3371L132.904 82.3533L132.894 82.3695C133.431 82.6739 134.026 82.826 134.681 82.826V82.8074ZM132.904 82.3533L132.913 82.3371C132.389 82.0361 131.974 81.614 131.666 81.0706L131.65 81.0797L131.634 81.0889C131.945 81.638 132.365 82.065 132.894 82.3694L132.904 82.3533ZM131.65 81.0797L131.666 81.0707C131.365 80.5275 131.214 79.9153 131.214 79.2336H131.196H131.177C131.177 79.921 131.329 80.5395 131.634 81.0888L131.65 81.0797ZM131.196 79.2336H131.214C131.214 78.552 131.365 77.9431 131.666 77.4065L131.65 77.3974L131.634 77.3883C131.329 77.931 131.177 78.5463 131.177 79.2336H131.196ZM131.65 77.3974L131.666 77.4066C131.974 76.8631 132.389 76.4411 132.913 76.14L132.904 76.1239L132.894 76.1077C132.365 76.4122 131.945 76.8391 131.634 77.3882L131.65 77.3974ZM132.904 76.1239L132.913 76.1401C133.443 75.839 134.032 75.6884 134.681 75.6884V75.6697V75.6511C134.026 75.6511 133.431 75.8032 132.894 76.1077L132.904 76.1239ZM134.681 76.9531V76.9345C134.27 76.9345 133.908 77.0273 133.595 77.2135L133.605 77.2296L133.614 77.2456C133.92 77.0632 134.276 76.9718 134.681 76.9718V76.9531ZM133.605 77.2296L133.595 77.2135C133.282 77.3998 133.037 77.6691 132.857 78.0208L132.874 78.0292L132.891 78.0377C133.067 77.6917 133.308 77.4279 133.614 77.2456L133.605 77.2296ZM132.874 78.0292L132.857 78.0209C132.685 78.3662 132.599 78.7706 132.599 79.2336H132.617H132.636C132.636 78.7752 132.721 78.3767 132.891 78.0376L132.874 78.0292ZM132.617 79.2336H132.599C132.599 79.6967 132.685 80.1043 132.857 80.4561L132.874 80.4479L132.891 80.4397C132.721 80.0939 132.636 79.692 132.636 79.2336H132.617ZM132.874 80.4479L132.858 80.4565C133.037 80.8016 133.283 81.0675 133.595 81.2537L133.605 81.2377L133.614 81.2217C133.308 81.0393 133.067 80.7787 132.891 80.4393L132.874 80.4479ZM133.605 81.2377L133.595 81.2537C133.908 81.4399 134.27 81.5328 134.681 81.5328V81.5141V81.4955C134.276 81.4955 133.92 81.404 133.614 81.2217L133.605 81.2377ZM134.681 81.5141V81.5328C135.092 81.5328 135.454 81.4399 135.766 81.2537L135.757 81.2377L135.747 81.2217C135.441 81.404 135.086 81.4955 134.681 81.4955V81.5141ZM135.757 81.2377L135.766 81.2537C136.079 81.0675 136.322 80.8015 136.494 80.4563L136.477 80.4479L136.461 80.4396C136.291 80.7788 136.053 81.0393 135.747 81.2217L135.757 81.2377ZM136.477 80.4479L136.494 80.4564C136.673 80.1045 136.763 79.6968 136.763 79.2336H136.744H136.725C136.725 79.6919 136.637 80.0937 136.461 80.4395L136.477 80.4479ZM136.744 79.2336H136.763C136.763 78.7705 136.673 78.366 136.494 78.0206L136.477 78.0292L136.461 78.0378C136.637 78.3769 136.725 78.7753 136.725 79.2336H136.744ZM136.477 78.0292L136.494 78.021C136.322 77.6692 136.079 77.3998 135.766 77.2135L135.757 77.2296L135.747 77.2456C136.053 77.4279 136.291 77.6916 136.461 78.0374L136.477 78.0292ZM135.757 77.2296L135.766 77.2135C135.454 77.0273 135.092 76.9345 134.681 76.9345V76.9531V76.9718C135.086 76.9718 135.441 77.0632 135.747 77.2456L135.757 77.2296ZM147.387 82.7383V82.7569H147.405V82.7383H147.387ZM145.995 82.7383L145.979 82.7485L145.985 82.7569H145.995V82.7383ZM142.875 77.9996L142.891 77.9893L142.856 77.9374V77.9996H142.875ZM142.875 82.7383V82.7569H142.894V82.7383H142.875ZM141.483 82.7383H141.464V82.7569H141.483V82.7383ZM141.483 75.7685V75.7498H141.464V75.7685H141.483ZM142.875 75.7685L142.891 75.7583L142.885 75.7498H142.875V75.7685ZM145.995 80.5466L145.979 80.5568L146.013 80.6093V80.5466H145.995ZM145.995 75.7685V75.7498H145.976V75.7685H145.995ZM147.387 75.7685H147.405V75.7498H147.387V75.7685ZM147.387 82.7383V82.7196H145.995V82.7383V82.7569H147.387V82.7383ZM145.995 82.7383L146.01 82.728L142.891 77.9893L142.875 77.9996L142.859 78.0098L145.979 82.7485L145.995 82.7383ZM142.875 77.9996H142.856V82.7383H142.875H142.894V77.9996H142.875ZM142.875 82.7383V82.7196H141.483V82.7383V82.7569H142.875V82.7383ZM141.483 82.7383H141.502V75.7685H141.483H141.464V82.7383H141.483ZM141.483 75.7685V75.7871H142.875V75.7685V75.7498H141.483V75.7685ZM142.875 75.7685L142.859 75.7787L145.979 80.5568L145.995 80.5466L146.01 80.5364L142.891 75.7583L142.875 75.7685ZM145.995 80.5466H146.013V75.7685H145.995H145.976V80.5466H145.995ZM145.995 75.7685V75.7871H147.387V75.7685V75.7498H145.995V75.7685ZM147.387 75.7685H147.368V82.7383H147.387H147.405V75.7685H147.387ZM155.438 81.8202L155.454 81.8298L155.454 81.8296L155.438 81.8202ZM154.649 82.5408L154.657 82.5574L154.657 82.5573L154.649 82.5408ZM152.052 82.5606L152.045 82.5776L152.045 82.5777L152.052 82.5606ZM151.114 81.83L151.099 81.841L151.099 81.8412L151.114 81.83ZM150.719 80.7243V80.7057H150.699L150.701 80.7258L150.719 80.7243ZM152.2 80.7243L152.219 80.7222L152.217 80.7057H152.2V80.7243ZM152.536 81.4351L152.523 81.4483L152.523 81.4488L152.536 81.4351ZM153.977 81.4845L153.964 81.4713V81.4713L153.977 81.4845ZM154.027 80.3492L154.012 80.3614L154.013 80.3617L154.027 80.3492ZM153.553 80.0037L153.56 79.9867V79.9867L153.553 80.0037ZM152.763 79.7075L152.757 79.7252V79.7252L152.763 79.7075ZM151.697 79.283L151.688 79.2995L151.688 79.2997L151.697 79.283ZM150.986 78.661L150.971 78.6718L150.971 78.672L150.986 78.661ZM151.341 76.193L151.353 76.2075L151.353 76.2075L151.341 76.193ZM154.816 76.2028L154.805 76.2173L154.805 76.2174L154.816 76.2028ZM155.567 77.6245V77.6431H155.587L155.585 77.6226L155.567 77.6245ZM154.066 77.6245L154.048 77.6274L154.05 77.6431H154.066V77.6245ZM153.75 77.0124L153.737 77.0258L153.738 77.0261L153.75 77.0124ZM152.427 76.9729L152.439 76.9872L152.44 76.9869L152.427 76.9729ZM152.368 78.0687L152.354 78.0809L152.355 78.0815L152.368 78.0687ZM152.832 78.3945L152.824 78.4114L152.824 78.4115L152.832 78.3945ZM153.602 78.6808L153.608 78.6632L153.608 78.6631L153.602 78.6808ZM154.688 79.125L154.68 79.1417L154.68 79.1418L154.688 79.125ZM155.409 79.747L155.424 79.7362V79.7362L155.409 79.747ZM155.705 80.8329H155.686C155.686 81.1851 155.598 81.5109 155.422 81.8107L155.438 81.8202L155.454 81.8296C155.634 81.524 155.724 81.1916 155.724 80.8329H155.705ZM155.438 81.8202L155.422 81.8106C155.247 82.1034 154.986 82.3414 154.64 82.5244L154.649 82.5408L154.657 82.5573C155.009 82.3717 155.275 82.1292 155.454 81.8298L155.438 81.8202ZM154.649 82.5408L154.64 82.5242C154.295 82.7003 153.873 82.7887 153.375 82.7887V82.8074V82.826C153.877 82.826 154.305 82.7368 154.657 82.5574L154.649 82.5408ZM153.375 82.8074V82.7887C152.883 82.7887 152.445 82.7068 152.059 82.5434L152.052 82.5606L152.045 82.5777C152.436 82.7434 152.879 82.826 153.375 82.826V82.8074ZM152.052 82.5606L152.06 82.5435C151.674 82.3736 151.364 82.132 151.129 81.8188L151.114 81.83L151.099 81.8412C151.338 82.1599 151.654 82.4053 152.045 82.5776L152.052 82.5606ZM151.114 81.83L151.129 81.819C150.901 81.5062 150.771 81.141 150.738 80.7229L150.719 80.7243L150.701 80.7258C150.734 81.1502 150.867 81.5221 151.099 81.841L151.114 81.83ZM150.719 80.7243V80.743H152.2V80.7243V80.7057H150.719V80.7243ZM152.2 80.7243L152.182 80.7265C152.215 81.0134 152.329 81.2543 152.523 81.4483L152.536 81.4351L152.549 81.422C152.361 81.2342 152.251 81.0013 152.219 80.7222L152.2 80.7243ZM152.536 81.4351L152.523 81.4488C152.725 81.6369 152.99 81.7302 153.316 81.7302V81.7116V81.6929C152.997 81.6929 152.742 81.602 152.549 81.4215L152.536 81.4351ZM153.316 81.7116V81.7302C153.609 81.7302 153.834 81.6536 153.99 81.4977L153.977 81.4845L153.964 81.4713C153.817 81.6181 153.602 81.6929 153.316 81.6929V81.7116ZM153.977 81.4845L153.99 81.4977C154.152 81.3359 154.233 81.1303 154.233 80.8823H154.214H154.196C154.196 81.1214 154.118 81.3172 153.964 81.4713L153.977 81.4845ZM154.214 80.8823H154.233C154.233 80.6613 154.169 80.4789 154.04 80.3367L154.027 80.3492L154.013 80.3617C154.134 80.4959 154.196 80.6689 154.196 80.8823H154.214ZM154.027 80.3492L154.041 80.337C153.914 80.19 153.753 80.0732 153.56 79.9867L153.553 80.0037L153.545 80.0207C153.734 80.1052 153.889 80.2188 154.012 80.3614L154.027 80.3492ZM153.553 80.0037L153.56 79.9867C153.369 79.9007 153.105 79.8018 152.769 79.6898L152.763 79.7075L152.757 79.7252C153.092 79.837 153.355 79.9355 153.545 80.0207L153.553 80.0037ZM152.763 79.7075L152.769 79.6898C152.335 79.5452 151.98 79.404 151.705 79.2663L151.697 79.283L151.688 79.2997C151.966 79.4384 152.322 79.5802 152.757 79.7252L152.763 79.7075ZM151.697 79.283L151.705 79.2665C151.432 79.1231 151.197 78.9177 151.001 78.65L150.986 78.661L150.971 78.672C151.17 78.944 151.409 79.1533 151.688 79.2995L151.697 79.283ZM150.986 78.661L151.001 78.6503C150.813 78.3844 150.718 78.0364 150.718 77.6047H150.7H150.681C150.681 78.0417 150.777 78.398 150.971 78.6718L150.986 78.661ZM150.7 77.6047H150.718C150.718 77.0108 150.93 76.5459 151.353 76.2075L151.341 76.193L151.33 76.1784C150.897 76.5246 150.681 77.0007 150.681 77.6047H150.7ZM151.341 76.193L151.353 76.2075C151.783 75.862 152.351 75.6884 153.059 75.6884V75.6697V75.6511C152.345 75.6511 151.768 75.8263 151.33 76.1784L151.341 76.193ZM153.059 75.6697V75.6884C153.793 75.6884 154.374 75.8654 154.805 76.2173L154.816 76.2028L154.828 76.1884C154.39 75.8295 153.799 75.6511 153.059 75.6511V75.6697ZM154.816 76.2028L154.805 76.2174C155.242 76.5695 155.489 77.0387 155.548 77.6263L155.567 77.6245L155.585 77.6226C155.526 77.0256 155.273 76.547 154.828 76.1883L154.816 76.2028ZM155.567 77.6245V77.6058H154.066V77.6245V77.6431H155.567V77.6245ZM154.066 77.6245L154.085 77.6215C154.044 77.3677 153.937 77.1597 153.763 76.9987L153.75 77.0124L153.738 77.0261C153.905 77.1809 154.009 77.381 154.048 77.6274L154.066 77.6245ZM153.75 77.0124L153.763 76.9989C153.588 76.8303 153.349 76.7469 153.049 76.7469V76.7656V76.7842C153.342 76.7842 153.57 76.8654 153.737 77.0258L153.75 77.0124ZM153.049 76.7656V76.7469C152.789 76.7469 152.577 76.817 152.415 76.9589L152.427 76.9729L152.44 76.9869C152.593 76.8523 152.796 76.7842 153.049 76.7842V76.7656ZM152.427 76.9729L152.415 76.9586C152.252 77.0946 152.172 77.2946 152.172 77.5553H152.19H152.209C152.209 77.3027 152.287 77.1144 152.439 76.9872L152.427 76.9729ZM152.19 77.5553H152.172C152.172 77.7632 152.232 77.9388 152.354 78.0808L152.368 78.0687L152.382 78.0566C152.267 77.9221 152.209 77.7555 152.209 77.5553H152.19ZM152.368 78.0687L152.355 78.0815C152.481 78.2151 152.638 78.325 152.824 78.4114L152.832 78.3945L152.84 78.3776C152.658 78.2929 152.505 78.1856 152.382 78.0559L152.368 78.0687ZM152.832 78.3945L152.824 78.4115C153.016 78.4974 153.274 78.5931 153.596 78.6985L153.602 78.6808L153.608 78.6631C153.286 78.5579 153.03 78.4627 152.84 78.3775L152.832 78.3945ZM153.602 78.6808L153.596 78.6984C154.043 78.8562 154.404 79.004 154.68 79.1417L154.688 79.125L154.696 79.1084C154.419 78.9697 154.056 78.8213 153.608 78.6632L153.602 78.6808ZM154.688 79.125L154.68 79.1418C154.96 79.2785 155.198 79.4837 155.394 79.7578L155.409 79.747L155.424 79.7362C155.225 79.4574 154.982 79.248 154.696 79.1083L154.688 79.125ZM155.409 79.747L155.394 79.7578C155.588 80.0302 155.686 80.3881 155.686 80.8329H155.705H155.724C155.724 80.3827 155.624 80.0166 155.424 79.7362L155.409 79.747ZM167.054 82.7383L167.038 82.7479L167.044 82.7569H167.054V82.7383ZM165.426 80.0234L165.441 80.0138L165.436 80.0048H165.426V80.0234ZM164.813 80.0234V80.0048H164.795V80.0234H164.813ZM164.813 82.7383V82.7569H164.832V82.7383H164.813ZM163.421 82.7383H163.403V82.7569H163.421V82.7383ZM163.421 75.7685V75.7498H163.403V75.7685H163.421ZM167.923 76.3608L167.91 76.3744L167.911 76.3745L167.923 76.3608ZM168.121 79.2435L168.106 79.2316L168.106 79.2317L168.121 79.2435ZM166.857 79.9543L166.853 79.9361L166.827 79.9416L166.841 79.9642L166.857 79.9543ZM168.594 82.7383V82.7569H168.628L168.61 82.7284L168.594 82.7383ZM164.813 79.0658H164.795V79.0844H164.813V79.0658ZM166.857 77.2296L166.844 77.2428L166.844 77.2432L166.857 77.2296ZM164.813 76.9433V76.9246H164.795V76.9433H164.813ZM167.054 82.7383L167.07 82.7287L165.441 80.0138L165.426 80.0234L165.41 80.033L167.038 82.7479L167.054 82.7383ZM165.426 80.0234V80.0048H164.813V80.0234V80.0421H165.426V80.0234ZM164.813 80.0234H164.795V82.7383H164.813H164.832V80.0234H164.813ZM164.813 82.7383V82.7196H163.421V82.7383V82.7569H164.813V82.7383ZM163.421 82.7383H163.44V75.7685H163.421H163.403V82.7383H163.421ZM163.421 75.7685V75.7871H166.077V75.7685V75.7498H163.421V75.7685ZM166.077 75.7685V75.7871C166.884 75.7871 167.494 75.9839 167.91 76.3744L167.923 76.3608L167.936 76.3472C167.51 75.948 166.889 75.7498 166.077 75.7498V75.7685ZM167.923 76.3608L167.911 76.3745C168.334 76.7655 168.546 77.2802 168.546 77.9206H168.565H168.584C168.584 77.2711 168.368 76.7459 167.936 76.3471L167.923 76.3608ZM168.565 77.9206H168.546C168.546 78.4434 168.399 78.88 168.106 79.2316L168.121 79.2435L168.135 79.2554C168.434 78.8962 168.584 78.4509 168.584 77.9206H168.565ZM168.121 79.2435L168.106 79.2317C167.82 79.5831 167.403 79.8183 166.853 79.9361L166.857 79.9543L166.861 79.9725C167.417 79.8534 167.842 79.6147 168.135 79.2553L168.121 79.2435ZM166.857 79.9543L166.841 79.9642L168.579 82.7482L168.594 82.7383L168.61 82.7284L166.873 79.9444L166.857 79.9543ZM168.594 82.7383V82.7196H167.054V82.7383V82.7569H168.594V82.7383ZM164.813 79.0658V79.0844H165.959V79.0658V79.0472H164.813V79.0658ZM165.959 79.0658V79.0844C166.359 79.0844 166.663 78.9959 166.867 78.8157C167.071 78.635 167.172 78.3651 167.172 78.0095H167.153H167.135C167.135 78.3581 167.036 78.6163 166.842 78.7878C166.648 78.9596 166.354 79.0472 165.959 79.0472V79.0658ZM167.153 78.0095H167.172C167.172 77.67 167.072 77.4046 166.87 77.2159L166.857 77.2296L166.844 77.2432C167.037 77.4231 167.135 77.6776 167.135 78.0095H167.153ZM166.857 77.2296L166.87 77.2164C166.674 77.0206 166.369 76.9246 165.959 76.9246V76.9433V76.9619C166.364 76.9619 166.658 77.0568 166.844 77.2427L166.857 77.2296ZM165.959 76.9433V76.9246H164.813V76.9433V76.9619H165.959V76.9433ZM164.813 76.9433H164.795V79.0658H164.813H164.832V76.9433H164.813ZM173.167 76.8742V76.8555H173.149V76.8742H173.167ZM173.167 78.6808H173.149V78.6994H173.167V78.6808ZM175.636 78.6808H175.654V78.6621H175.636V78.6808ZM175.636 79.747V79.7656H175.654V79.747H175.636ZM173.167 79.747V79.7283H173.149V79.747H173.167ZM173.167 81.6227H173.149V81.6414H173.167V81.6227ZM175.932 81.6227H175.95V81.6041H175.932V81.6227ZM175.932 82.7383V82.7569H175.95V82.7383H175.932ZM171.775 82.7383H171.757V82.7569H171.775V82.7383ZM171.775 75.7685V75.7498H171.757V75.7685H171.775ZM175.932 75.7685H175.95V75.7498H175.932V75.7685ZM175.932 76.8742V76.8928H175.95V76.8742H175.932ZM173.167 76.8742H173.149V78.6808H173.167H173.186V76.8742H173.167ZM173.167 78.6808V78.6994H175.636V78.6808V78.6621H173.167V78.6808ZM175.636 78.6808H175.617V79.747H175.636H175.654V78.6808H175.636ZM175.636 79.747V79.7283H173.167V79.747V79.7656H175.636V79.747ZM173.167 79.747H173.149V81.6227H173.167H173.186V79.747H173.167ZM173.167 81.6227V81.6414H175.932V81.6227V81.6041H173.167V81.6227ZM175.932 81.6227H175.913V82.7383H175.932H175.95V81.6227H175.932ZM175.932 82.7383V82.7196H171.775V82.7383V82.7569H175.932V82.7383ZM171.775 82.7383H171.794V75.7685H171.775H171.757V82.7383H171.775ZM171.775 75.7685V75.7871H175.932V75.7685V75.7498H171.775V75.7685ZM175.932 75.7685H175.913V76.8742H175.932H175.95V75.7685H175.932ZM175.932 76.8742V76.8555H173.167V76.8742V76.8928H175.932V76.8742ZM183.478 81.3364L183.496 81.3303L183.491 81.3178H183.478V81.3364ZM180.684 81.3364V81.3178H180.671L180.667 81.3302L180.684 81.3364ZM180.19 82.7383V82.7569H180.204L180.208 82.7445L180.19 82.7383ZM178.72 82.7383L178.702 82.7318L178.693 82.7569H178.72V82.7383ZM181.286 75.8474V75.8288H181.273L181.269 75.8409L181.286 75.8474ZM182.876 75.8474L182.893 75.841L182.889 75.8288H182.876V75.8474ZM185.433 82.7383V82.7569H185.459L185.45 82.7318L185.433 82.7383ZM183.962 82.7383L183.944 82.7444L183.948 82.7569H183.962V82.7383ZM183.103 80.2801V80.2987H183.129L183.12 80.2739L183.103 80.2801ZM182.076 77.3382L182.094 77.332L182.076 77.2816L182.058 77.332L182.076 77.3382ZM181.049 80.2801L181.032 80.2739L181.023 80.2987H181.049V80.2801ZM183.478 81.3364V81.3178H180.684V81.3364V81.3551H183.478V81.3364ZM180.684 81.3364L180.667 81.3302L180.173 82.7321L180.19 82.7383L180.208 82.7445L180.702 81.3426L180.684 81.3364ZM180.19 82.7383V82.7196H178.72V82.7383V82.7569H180.19V82.7383ZM178.72 82.7383L178.737 82.7448L181.304 75.854L181.286 75.8474L181.269 75.8409L178.702 82.7318L178.72 82.7383ZM181.286 75.8474V75.8661H182.876V75.8474V75.8288H181.286V75.8474ZM182.876 75.8474L182.858 75.8539L185.415 82.7448L185.433 82.7383L185.45 82.7318L182.893 75.841L182.876 75.8474ZM185.433 82.7383V82.7196H183.962V82.7383V82.7569H185.433V82.7383ZM183.962 82.7383L183.979 82.7322L183.496 81.3303L183.478 81.3364L183.46 81.3425L183.944 82.7444L183.962 82.7383ZM183.103 80.2801L183.12 80.2739L182.094 77.332L182.076 77.3382L182.058 77.3443L183.085 80.2862L183.103 80.2801ZM182.076 77.3382L182.058 77.332L181.032 80.2739L181.049 80.2801L181.067 80.2862L182.094 77.3443L182.076 77.3382ZM181.049 80.2801V80.2987H183.103V80.2801V80.2614H181.049V80.2801ZM189.847 81.6721H189.828V81.6907H189.847V81.6721ZM192.186 81.6721H192.205V81.6534H192.186V81.6721ZM192.186 82.7383V82.7569H192.205V82.7383H192.186ZM188.455 82.7383H188.436V82.7569H188.455V82.7383ZM188.455 75.7685V75.7498H188.436V75.7685H188.455ZM189.847 75.7685H189.865V75.7498H189.847V75.7685ZM189.847 81.6721V81.6907H192.186V81.6721V81.6534H189.847V81.6721ZM192.186 81.6721H192.168V82.7383H192.186H192.205V81.6721H192.186ZM192.186 82.7383V82.7196H188.455V82.7383V82.7569H192.186V82.7383ZM188.455 82.7383H188.473V75.7685H188.455H188.436V82.7383H188.455ZM188.455 75.7685V75.7871H189.847V75.7685V75.7498H188.455V75.7685ZM189.847 75.7685H189.828V81.6721H189.847H189.865V75.7685H189.847ZM205.047 76.3312L205.036 76.3461L205.036 76.3462L205.047 76.3312ZM206.123 78.0193V78.038H206.146L206.141 78.0153L206.123 78.0193ZM204.662 78.0193L204.645 78.0268L204.65 78.038H204.662V78.0193ZM204 77.2691L203.99 77.2847L203.991 77.285L204 77.2691ZM201.878 77.2592L201.868 77.2432V77.2432L201.878 77.2592ZM201.157 78.049L201.14 78.0406V78.0406L201.157 78.049ZM201.483 80.9613L201.469 80.9741L201.469 80.9742L201.483 80.9613ZM204.375 81.1291L204.364 81.1147L204.364 81.1148L204.375 81.1291ZM205.076 79.8951L205.095 79.8987L205.099 79.8764H205.076V79.8951ZM202.717 79.8951H202.698V79.9137H202.717V79.8951ZM202.717 78.898V78.8793H202.698V78.898H202.717ZM206.241 78.898H206.26V78.8793H206.241V78.898ZM206.241 80.2406L206.26 80.2446V80.2406H206.241ZM205.659 81.5141L205.644 81.503L205.644 81.5031L205.659 81.5141ZM204.533 82.452L204.542 82.4687L204.542 82.4686L204.533 82.452ZM201.127 82.3533L201.118 82.3694L201.118 82.3695L201.127 82.3533ZM199.913 81.0995L199.897 81.1081L199.897 81.1084L199.913 81.0995ZM199.913 77.4171L199.897 77.4083L199.897 77.4084L199.913 77.4171ZM202.934 75.6994V75.718C203.78 75.718 204.48 75.9278 205.036 76.3461L205.047 76.3312L205.058 76.3163C204.495 75.8922 203.786 75.6807 202.934 75.6807V75.6994ZM205.047 76.3312L205.036 76.3462C205.591 76.758 205.948 77.3167 206.105 78.0234L206.123 78.0193L206.141 78.0153C205.982 77.3003 205.621 76.7336 205.058 76.3162L205.047 76.3312ZM206.123 78.0193V78.0007H204.662V78.0193V78.038H206.123V78.0193ZM204.662 78.0193L204.679 78.0119C204.539 77.6923 204.316 77.4393 204.01 77.2531L204 77.2691L203.991 77.285C204.29 77.4673 204.508 77.7145 204.645 78.0268L204.662 78.0193ZM204 77.2691L204.01 77.2534C203.711 77.0603 203.355 76.9641 202.944 76.9641V76.9828V77.0014C203.349 77.0014 203.697 77.0961 203.99 77.2847L204 77.2691ZM202.944 76.9828V76.9641C202.54 76.9641 202.181 77.057 201.868 77.2432L201.878 77.2592L201.887 77.2752C202.193 77.0928 202.545 77.0014 202.944 77.0014V76.9828ZM201.878 77.2592L201.868 77.2432C201.556 77.4294 201.313 77.6954 201.14 78.0406L201.157 78.049L201.174 78.0573C201.343 77.718 201.581 77.4575 201.887 77.2752L201.878 77.2592ZM201.157 78.049L201.14 78.0406C200.968 78.3859 200.882 78.7904 200.882 79.2534H200.9H200.919C200.919 78.795 201.004 78.3965 201.174 78.0573L201.157 78.049ZM200.9 79.2534H200.882C200.882 79.9872 201.077 80.5617 201.469 80.9741L201.483 80.9613L201.496 80.9484C201.112 80.5448 200.919 79.9806 200.919 79.2534H200.9ZM201.483 80.9613L201.469 80.9742C201.869 81.3866 202.41 81.592 203.092 81.592V81.5734V81.5547C202.418 81.5547 201.887 81.352 201.496 80.9483L201.483 80.9613ZM203.092 81.5734V81.592C203.596 81.592 204.028 81.4426 204.387 81.1434L204.375 81.1291L204.364 81.1148C204.012 81.4079 203.588 81.5547 203.092 81.5547V81.5734ZM204.375 81.1291L204.387 81.1435C204.753 80.8442 204.989 80.4288 205.095 79.8987L205.076 79.8951L205.058 79.8914C204.953 80.4144 204.722 80.8216 204.364 81.1147L204.375 81.1291ZM205.076 79.8951V79.8764H202.717V79.8951V79.9137H205.076V79.8951ZM202.717 79.8951H202.736V78.898H202.717H202.698V79.8951H202.717ZM202.717 78.898V78.9166H206.241V78.898V78.8793H202.717V78.898ZM206.241 78.898H206.223V80.2406H206.241H206.26V78.898H206.241ZM206.241 80.2406L206.223 80.2367C206.125 80.6947 205.932 81.1168 205.644 81.503L205.659 81.5141L205.674 81.5253C205.965 81.1349 206.16 80.7079 206.26 80.2445L206.241 80.2406ZM205.659 81.5141L205.644 81.5031C205.363 81.8889 204.99 82.1996 204.525 82.4354L204.533 82.452L204.542 82.4686C205.011 82.2305 205.389 81.916 205.674 81.5251L205.659 81.5141ZM204.533 82.452L204.525 82.4353C204.067 82.6642 203.54 82.7789 202.944 82.7789V82.7975V82.8162C203.545 82.8162 204.078 82.7005 204.542 82.4687L204.533 82.452ZM202.944 82.7975V82.7789C202.262 82.7789 201.66 82.6314 201.137 82.337L201.127 82.3533L201.118 82.3695C201.648 82.6674 202.257 82.8162 202.944 82.8162V82.7975ZM201.127 82.3533L201.137 82.3372C200.62 82.0361 200.218 81.6207 199.93 81.0906L199.913 81.0995L199.897 81.1084C200.188 81.6445 200.595 82.0649 201.118 82.3694L201.127 82.3533ZM199.913 81.0995L199.93 81.0908C199.648 80.5542 199.507 79.9418 199.507 79.2534H199.489H199.47C199.47 79.947 199.612 80.5654 199.897 81.1081L199.913 81.0995ZM199.489 79.2534H199.507C199.507 78.5649 199.648 77.9559 199.93 77.4259L199.913 77.4171L199.897 77.4084C199.612 77.9446 199.47 78.5597 199.47 79.2534H199.489ZM199.913 77.4171L199.93 77.4259C200.218 76.8892 200.62 76.4706 201.137 76.1696L201.127 76.1535L201.118 76.1374C200.595 76.4419 200.188 76.8657 199.897 77.4083L199.913 77.4171ZM201.127 76.1535L201.137 76.1696C201.654 75.8687 202.252 75.718 202.934 75.718V75.6994V75.6807C202.247 75.6807 201.641 75.8327 201.118 76.1374L201.127 76.1535ZM213.187 82.7383L213.171 82.7479L213.177 82.7569H213.187V82.7383ZM211.558 80.0234L211.574 80.0138L211.569 80.0048H211.558V80.0234ZM210.946 80.0234V80.0048H210.928V80.0234H210.946ZM210.946 82.7383V82.7569H210.965V82.7383H210.946ZM209.554 82.7383H209.536V82.7569H209.554V82.7383ZM209.554 75.7685V75.7498H209.536V75.7685H209.554ZM214.056 76.3608L214.043 76.3744L214.043 76.3745L214.056 76.3608ZM214.253 79.2435L214.239 79.2316L214.239 79.2317L214.253 79.2435ZM212.99 79.9543L212.986 79.9361L212.96 79.9416L212.974 79.9642L212.99 79.9543ZM214.727 82.7383V82.7569H214.761L214.743 82.7284L214.727 82.7383ZM210.946 79.0658H210.928V79.0844H210.946V79.0658ZM212.99 77.2296L212.977 77.2428L212.977 77.2432L212.99 77.2296ZM210.946 76.9433V76.9246H210.928V76.9433H210.946ZM213.187 82.7383L213.203 82.7287L211.574 80.0138L211.558 80.0234L211.542 80.033L213.171 82.7479L213.187 82.7383ZM211.558 80.0234V80.0048H210.946V80.0234V80.0421H211.558V80.0234ZM210.946 80.0234H210.928V82.7383H210.946H210.965V80.0234H210.946ZM210.946 82.7383V82.7196H209.554V82.7383V82.7569H210.946V82.7383ZM209.554 82.7383H209.573V75.7685H209.554H209.536V82.7383H209.554ZM209.554 75.7685V75.7871H212.21V75.7685V75.7498H209.554V75.7685ZM212.21 75.7685V75.7871C213.017 75.7871 213.627 75.9839 214.043 76.3744L214.056 76.3608L214.069 76.3472C213.643 75.948 213.022 75.7498 212.21 75.7498V75.7685ZM214.056 76.3608L214.043 76.3745C214.467 76.7655 214.679 77.2802 214.679 77.9206H214.698H214.716C214.716 77.2711 214.501 76.7459 214.069 76.3471L214.056 76.3608ZM214.698 77.9206H214.679C214.679 78.4434 214.532 78.88 214.239 79.2316L214.253 79.2435L214.268 79.2554C214.567 78.8962 214.716 78.4509 214.716 77.9206H214.698ZM214.253 79.2435L214.239 79.2317C213.953 79.5831 213.536 79.8183 212.986 79.9361L212.99 79.9543L212.994 79.9725C213.55 79.8534 213.975 79.6147 214.268 79.2553L214.253 79.2435ZM212.99 79.9543L212.974 79.9642L214.711 82.7482L214.727 82.7383L214.743 82.7284L213.006 79.9444L212.99 79.9543ZM214.727 82.7383V82.7196H213.187V82.7383V82.7569H214.727V82.7383ZM210.946 79.0658V79.0844H212.091V79.0658V79.0472H210.946V79.0658ZM212.091 79.0658V79.0844C212.492 79.0844 212.796 78.9959 213 78.8157C213.204 78.635 213.305 78.3651 213.305 78.0095H213.286H213.267C213.267 78.3581 213.169 78.6163 212.975 78.7878C212.781 78.9596 212.487 79.0472 212.091 79.0472V79.0658ZM213.286 78.0095H213.305C213.305 77.67 213.205 77.4046 213.002 77.2159L212.99 77.2296L212.977 77.2432C213.17 77.4231 213.267 77.6776 213.267 78.0095H213.286ZM212.99 77.2296L213.003 77.2164C212.807 77.0206 212.502 76.9246 212.091 76.9246V76.9433V76.9619C212.497 76.9619 212.791 77.0568 212.977 77.2427L212.99 77.2296ZM212.091 76.9433V76.9246H210.946V76.9433V76.9619H212.091V76.9433ZM210.946 76.9433H210.928V79.0658H210.946H210.965V76.9433H210.946ZM222.943 76.1239L222.934 76.14L222.934 76.1401L222.943 76.1239ZM224.197 77.3974L224.181 77.4064L224.181 77.4067L224.197 77.3974ZM224.197 81.0797L224.181 81.0706L224.181 81.0707L224.197 81.0797ZM222.943 82.3533L222.934 82.3371L222.934 82.3371L222.943 82.3533ZM219.399 82.3533L219.39 82.3694L219.39 82.3695L219.399 82.3533ZM218.145 81.0797L218.129 81.0888L218.129 81.0889L218.145 81.0797ZM218.145 77.3974L218.129 77.3882L218.129 77.3883L218.145 77.3974ZM219.399 76.1239L219.39 76.1077L219.39 76.1077L219.399 76.1239ZM220.1 77.2296L220.109 77.2456V77.2456L220.1 77.2296ZM219.369 78.0292L219.353 78.0208L219.353 78.0209L219.369 78.0292ZM219.369 80.4479L219.353 80.4561L219.353 80.4565L219.369 80.4479ZM220.1 81.2377L220.109 81.2217V81.2217L220.1 81.2377ZM222.252 81.2377L222.242 81.2217V81.2217L222.252 81.2377ZM222.973 80.4479L222.956 80.4395L222.956 80.4396L222.973 80.4479ZM222.973 78.0292L222.956 78.0374L222.956 78.0378L222.973 78.0292ZM221.176 75.6697V75.6884C221.824 75.6884 222.41 75.839 222.934 76.14L222.943 76.1239L222.952 76.1077C222.423 75.8032 221.831 75.6511 221.176 75.6511V75.6697ZM222.943 76.1239L222.934 76.1401C223.464 76.4411 223.879 76.8631 224.181 77.4064L224.197 77.3974L224.213 77.3884C223.909 76.8391 223.488 76.4121 222.952 76.1077L222.943 76.1239ZM224.197 77.3974L224.181 77.4067C224.488 77.9432 224.642 78.5521 224.642 79.2336H224.661H224.679C224.679 78.5462 224.524 77.9309 224.213 77.3881L224.197 77.3974ZM224.661 79.2336H224.642C224.642 79.9152 224.488 80.5273 224.181 81.0706L224.197 81.0797L224.213 81.0889C224.524 80.5396 224.679 79.921 224.679 79.2336H224.661ZM224.197 81.0797L224.181 81.0707C223.879 81.614 223.464 82.036 222.934 82.3371L222.943 82.3533L222.952 82.3695C223.488 82.065 223.909 81.638 224.213 81.0888L224.197 81.0797ZM222.943 82.3533L222.934 82.3371C222.41 82.6381 221.824 82.7887 221.176 82.7887V82.8074V82.826C221.831 82.826 222.423 82.6739 222.952 82.3694L222.943 82.3533ZM221.176 82.8074V82.7887C220.527 82.7887 219.938 82.6381 219.408 82.3371L219.399 82.3533L219.39 82.3695C219.926 82.6739 220.521 82.826 221.176 82.826V82.8074ZM219.399 82.3533L219.408 82.3371C218.885 82.0361 218.469 81.614 218.161 81.0706L218.145 81.0797L218.129 81.0889C218.44 81.638 218.86 82.065 219.39 82.3694L219.399 82.3533ZM218.145 81.0797L218.161 81.0707C217.86 80.5275 217.71 79.9153 217.71 79.2336H217.691H217.672C217.672 79.921 217.824 80.5395 218.129 81.0888L218.145 81.0797ZM217.691 79.2336H217.71C217.71 78.552 217.86 77.9431 218.161 77.4065L218.145 77.3974L218.129 77.3883C217.824 77.931 217.672 78.5463 217.672 79.2336H217.691ZM218.145 77.3974L218.161 77.4066C218.469 76.8631 218.885 76.4411 219.408 76.14L219.399 76.1239L219.39 76.1077C218.86 76.4122 218.44 76.8391 218.129 77.3882L218.145 77.3974ZM219.399 76.1239L219.408 76.1401C219.938 75.839 220.527 75.6884 221.176 75.6884V75.6697V75.6511C220.521 75.6511 219.926 75.8032 219.39 76.1077L219.399 76.1239ZM221.176 76.9531V76.9345C220.765 76.9345 220.403 77.0273 220.09 77.2135L220.1 77.2296L220.109 77.2456C220.415 77.0632 220.771 76.9718 221.176 76.9718V76.9531ZM220.1 77.2296L220.09 77.2135C219.778 77.3998 219.532 77.6691 219.353 78.0208L219.369 78.0292L219.386 78.0377C219.562 77.6917 219.803 77.4279 220.109 77.2456L220.1 77.2296ZM219.369 78.0292L219.353 78.0209C219.18 78.3662 219.094 78.7706 219.094 79.2336H219.113H219.131C219.131 78.7752 219.216 78.3767 219.386 78.0376L219.369 78.0292ZM219.113 79.2336H219.094C219.094 79.6967 219.18 80.1043 219.353 80.4561L219.369 80.4479L219.386 80.4397C219.216 80.0939 219.131 79.692 219.131 79.2336H219.113ZM219.369 80.4479L219.353 80.4565C219.532 80.8016 219.778 81.0675 220.09 81.2537L220.1 81.2377L220.109 81.2217C219.803 81.0393 219.562 80.7787 219.386 80.4393L219.369 80.4479ZM220.1 81.2377L220.09 81.2537C220.403 81.4399 220.765 81.5328 221.176 81.5328V81.5141V81.4955C220.771 81.4955 220.415 81.404 220.109 81.2217L220.1 81.2377ZM221.176 81.5141V81.5328C221.587 81.5328 221.949 81.4399 222.262 81.2537L222.252 81.2377L222.242 81.2217C221.936 81.404 221.581 81.4955 221.176 81.4955V81.5141ZM222.252 81.2377L222.262 81.2537C222.574 81.0675 222.817 80.8015 222.989 80.4563L222.973 80.4479L222.956 80.4396C222.786 80.7788 222.549 81.0393 222.242 81.2217L222.252 81.2377ZM222.973 80.4479L222.989 80.4564C223.169 80.1045 223.258 79.6968 223.258 79.2336H223.239H223.221C223.221 79.6919 223.132 80.0937 222.956 80.4395L222.973 80.4479ZM223.239 79.2336H223.258C223.258 78.7705 223.169 78.366 222.989 78.0206L222.973 78.0292L222.956 78.0378C223.132 78.3769 223.221 78.7753 223.221 79.2336H223.239ZM222.973 78.0292L222.989 78.021C222.817 77.6692 222.574 77.3998 222.262 77.2135L222.252 77.2296L222.242 77.2456C222.548 77.4279 222.786 77.6916 222.956 78.0374L222.973 78.0292ZM222.252 77.2296L222.262 77.2135C221.949 77.0273 221.587 76.9345 221.176 76.9345V76.9531V76.9718C221.581 76.9718 221.936 77.0632 222.242 77.2456L222.252 77.2296ZM237.12 75.7685L237.138 75.7729L237.144 75.7498H237.12V75.7685ZM235.412 82.7383V82.7569H235.427L235.43 82.7427L235.412 82.7383ZM233.694 82.7383L233.676 82.7429L233.68 82.7569H233.694V82.7383ZM232.391 77.6837L232.409 77.679L232.391 77.6093L232.373 77.679L232.391 77.6837ZM231.078 82.7383V82.7569H231.093L231.096 82.743L231.078 82.7383ZM229.37 82.7383L229.352 82.7427L229.356 82.7569H229.37V82.7383ZM227.662 75.7685V75.7498H227.639L227.644 75.7729L227.662 75.7685ZM229.173 75.7685L229.191 75.7649L229.188 75.7498H229.173V75.7685ZM230.239 81.1686L230.221 81.1722L230.257 81.1732L230.239 81.1686ZM231.621 75.7685V75.7498H231.607L231.603 75.7638L231.621 75.7685ZM233.151 75.7685L233.169 75.7638L233.166 75.7498H233.151V75.7685ZM234.543 81.1686L234.525 81.1732L234.562 81.1722L234.543 81.1686ZM235.61 75.7685V75.7498H235.594L235.591 75.7649L235.61 75.7685ZM237.12 75.7685L237.102 75.764L235.394 82.7338L235.412 82.7383L235.43 82.7427L237.138 75.7729L237.12 75.7685ZM235.412 82.7383V82.7196H233.694V82.7383V82.7569H235.412V82.7383ZM233.694 82.7383L233.712 82.7336L232.409 77.679L232.391 77.6837L232.373 77.6883L233.676 82.7429L233.694 82.7383ZM232.391 77.6837L232.373 77.679L231.06 82.7336L231.078 82.7383L231.096 82.743L232.409 77.6884L232.391 77.6837ZM231.078 82.7383V82.7196H229.37V82.7383V82.7569H231.078V82.7383ZM229.37 82.7383L229.388 82.7338L227.68 75.764L227.662 75.7685L227.644 75.7729L229.352 82.7427L229.37 82.7383ZM227.662 75.7685V75.7871H229.173V75.7685V75.7498H227.662V75.7685ZM229.173 75.7685L229.155 75.7721L230.221 81.1722L230.239 81.1686L230.257 81.165L229.191 75.7649L229.173 75.7685ZM230.239 81.1686L230.257 81.1732L231.639 75.7731L231.621 75.7685L231.603 75.7638L230.221 81.164L230.239 81.1686ZM231.621 75.7685V75.7871H233.151V75.7685V75.7498H231.621V75.7685ZM233.151 75.7685L233.133 75.7731L234.525 81.1732L234.543 81.1686L234.561 81.1639L233.169 75.7638L233.151 75.7685ZM234.543 81.1686L234.562 81.1722L235.628 75.7721L235.61 75.7685L235.591 75.7649L234.525 81.165L234.543 81.1686ZM235.61 75.7685V75.7871H237.12V75.7685V75.7498H235.61V75.7685ZM245.082 75.7685H245.1V75.7498H245.082V75.7685ZM245.082 76.8742V76.8928H245.1V76.8742H245.082ZM243.157 76.8742V76.8555H243.138V76.8742H243.157ZM243.157 82.7383V82.7569H243.175V82.7383H243.157ZM241.765 82.7383H241.746V82.7569H241.765V82.7383ZM241.765 76.8742H241.783V76.8555H241.765V76.8742ZM239.849 76.8742H239.831V76.8928H239.849V76.8742ZM239.849 75.7685V75.7498H239.831V75.7685H239.849ZM245.082 75.7685H245.063V76.8742H245.082H245.1V75.7685H245.082ZM245.082 76.8742V76.8555H243.157V76.8742V76.8928H245.082V76.8742ZM243.157 76.8742H243.138V82.7383H243.157H243.175V76.8742H243.157ZM243.157 82.7383V82.7196H241.765V82.7383V82.7569H243.157V82.7383ZM241.765 82.7383H241.783V76.8742H241.765H241.746V82.7383H241.765ZM241.765 76.8742V76.8555H239.849V76.8742V76.8928H241.765V76.8742ZM239.849 76.8742H239.868V75.7685H239.849H239.831V76.8742H239.849ZM239.849 75.7685V75.7871H245.082V75.7685V75.7498H239.849V75.7685ZM253.894 75.7685H253.912V75.7498H253.894V75.7685ZM253.894 82.7383V82.7569H253.912V82.7383H253.894ZM252.492 82.7383H252.473V82.7569H252.492V82.7383ZM252.492 79.7075H252.511V79.6889H252.492V79.7075ZM249.51 79.7075V79.6889H249.492V79.7075H249.51ZM249.51 82.7383V82.7569H249.529V82.7383H249.51ZM248.118 82.7383H248.1V82.7569H248.118V82.7383ZM248.118 75.7685V75.7498H248.1V75.7685H248.118ZM249.51 75.7685H249.529V75.7498H249.51V75.7685ZM249.51 78.5919H249.492V78.6106H249.51V78.5919ZM252.492 78.5919V78.6106H252.511V78.5919H252.492ZM252.492 75.7685V75.7498H252.473V75.7685H252.492ZM253.894 75.7685H253.875V82.7383H253.894H253.912V75.7685H253.894ZM253.894 82.7383V82.7196H252.492V82.7383V82.7569H253.894V82.7383ZM252.492 82.7383H252.511V79.7075H252.492H252.473V82.7383H252.492ZM252.492 79.7075V79.6889H249.51V79.7075V79.7261H252.492V79.7075ZM249.51 79.7075H249.492V82.7383H249.51H249.529V79.7075H249.51ZM249.51 82.7383V82.7196H248.118V82.7383V82.7569H249.51V82.7383ZM248.118 82.7383H248.137V75.7685H248.118H248.1V82.7383H248.118ZM248.118 75.7685V75.7871H249.51V75.7685V75.7498H248.118V75.7685ZM249.51 75.7685H249.492V78.5919H249.51H249.529V75.7685H249.51ZM249.51 78.5919V78.6106H252.492V78.5919V78.5733H249.51V78.5919ZM252.492 78.5919H252.511V75.7685H252.492H252.473V78.5919H252.492ZM252.492 75.7685V75.7871H253.894V75.7685V75.7498H252.492V75.7685Z" fill="white" mask="url(#path-1-outside-1_502_40)"/>
<path d="M0.164062 79.3066H19.2504" stroke="white" stroke-width="0.329075" stroke-linecap="round"/>
<path d="M258.656 79.3066H277.743" stroke="white" stroke-width="0.329075" stroke-linecap="round"/>
<path d="M94.3778 24.3116C94.7068 24.2458 95.0359 24.2458 95.365 24.2458H104.513V36.4874H95.365C95.0359 36.4874 94.7068 36.4874 94.3778 36.5532C89.7707 37.0139 86.2167 40.897 86.2167 45.6357V69H74.0409V45.6357C74.0409 42.3449 74.7649 39.2516 76.0812 36.4874C79.3719 29.5768 86.2825 24.6407 94.3778 24.3116ZM137.647 26.3518C144.887 29.7742 149.889 37.0797 149.889 45.6357V47.6759C149.889 56.1661 144.887 63.5374 137.647 66.9597C134.883 68.276 131.789 69 128.499 69C125.274 69 122.115 68.276 119.35 66.9597C112.177 63.5374 107.175 56.1661 107.175 47.6759V45.6357C107.175 37.0797 112.177 29.7742 119.35 26.3518C122.115 25.0355 125.274 24.2458 128.499 24.2458C131.789 24.2458 134.883 25.0355 137.647 26.3518ZM137.647 47.6759V45.6357C137.647 43.0689 136.66 40.8312 135.014 39.12C133.369 37.4746 131.066 36.4874 128.499 36.4874C123.497 36.4874 119.35 40.5679 119.35 45.6357V47.6759C119.35 52.6779 123.497 56.8242 128.499 56.8242C131.066 56.8242 133.369 55.7712 135.014 54.1258C136.66 52.4804 137.647 50.1769 137.647 47.6759ZM175.621 54.1916L185.888 24.2458H198.788L183.453 69H167.789L152.52 24.2458H165.42L175.621 54.1916ZM203.109 69V26.286H215.351V69H203.109ZM209.23 3.90891C214.298 3.90891 218.378 8.05525 218.378 13.0572C218.378 18.125 214.298 22.2055 209.23 22.2055C204.162 22.2055 200.082 18.125 200.082 13.0572C200.082 8.05525 204.162 3.90891 209.23 3.90891ZM237.982 54.7839C237.982 55.9028 238.903 56.8242 240.022 56.8242H248.183V69H240.022C232.124 69 225.806 62.6159 225.806 54.7839V36.4874H219.685V24.2458H225.806V12.07H237.982V24.2458H244.102V36.4874H240.022H237.982H227.846V38.5276C232.19 38.5276 237.982 38.6593 237.982 44.5826C237.982 47.1494 237.982 54.7839 237.982 54.7839ZM267.804 54.7839C267.804 55.9028 268.725 56.8242 269.844 56.8242H278.005V69H269.844C261.946 69 255.628 62.6159 255.628 54.7839V36.4874H249.507V24.2458H255.628V12.07H267.804V24.2458H273.925V36.4874H269.844H267.804H257.668V38.5276C262.012 38.5276 267.804 38.6593 267.804 44.5826C267.804 47.1494 267.804 54.7839 267.804 54.7839Z" fill="white"/>
<path d="M32.7773 0.558594C45.3218 0.297283 56.2985 7.02703 62.1787 17.0234L52.0518 22.9688C48.589 16.8273 41.9899 12.6457 34.4111 12.6455H32.4502C21.2779 12.6457 12.1963 21.728 12.1963 32.835V36.8203C12.1964 47.1868 20.0155 55.7507 30.0684 56.9326L20.501 66.5C8.56444 61.365 0.109375 49.3763 0.109375 35.6436V34.0107C0.109375 15.8473 14.6139 0.885274 32.7773 0.558594ZM49.9014 37.0996L32.3848 42.8965V30.8096H56.1924L49.9014 37.0996Z" fill="white"/>
<path d="M65.3385 35.4503C52.3665 50.8199 34.9834 61.425 22.2266 64.96C41.8997 53.9553 56.5522 38.0375 61.4192 31.4541L57.3463 29.5329L71.771 24.4609L67.7208 39.5765L65.3385 35.4503Z" fill="white"/>
<path d="M65.3385 35.4503C52.3665 50.8199 34.9834 61.425 22.2266 64.96C41.8997 53.9553 56.5522 38.0375 61.4192 31.4541L57.3463 29.5329L71.771 24.4609L67.7208 39.5765L65.3385 35.4503Z" fill="#FD7919"/>
<path d="M61.8057 58.1943C59.7442 60.6861 57.5429 62.684 55.2734 64.2715V48.6035C58.0023 46.2 60.2399 43.9922 61.8057 42.2871V58.1943Z" fill="white"/>
<path d="M61.8057 58.1943C59.7442 60.6861 57.5429 62.684 55.2734 64.2715V48.6035C58.0023 46.2 60.2399 43.9922 61.8057 42.2871V58.1943Z" fill="#FD7919"/>
<path d="M52.6543 65.6592C50.472 66.8716 48.2511 67.7439 46.0469 68.3408V55.6504C48.4112 53.9805 50.6318 52.2619 52.6543 50.5879V65.6592Z" fill="white"/>
<path d="M52.6543 65.6592C50.472 66.8716 48.2511 67.7439 46.0469 68.3408V55.6504C48.4112 53.9805 50.6318 52.2619 52.6543 50.5879V65.6592Z" fill="#FD7919"/>
<path d="M43.4326 69.1475C41.1106 69.5618 38.8343 69.6938 36.6719 69.625V61.6875C38.998 60.451 41.2632 59.0842 43.4326 57.6543V69.1475Z" fill="white"/>
<path d="M43.4326 69.1475C41.1106 69.5618 38.8343 69.6938 36.6719 69.625V61.6875C38.998 60.451 41.2632 59.0842 43.4326 57.6543V69.1475Z" fill="#FD7919"/>
<path d="M34.21 69.1797C31.707 68.921 29.4114 68.4117 27.4453 67.793V65.4131C29.7211 64.6639 31.9866 63.729 34.21 62.6582V69.1797ZM61.7998 42.749H61.0791C61.3327 42.4827 61.5737 42.2267 61.7998 41.9805V42.749Z" fill="white"/>
<path d="M34.21 69.1797C31.707 68.921 29.4114 68.4117 27.4453 67.793V65.4131C29.7211 64.6639 31.9866 63.729 34.21 62.6582V69.1797ZM61.7998 42.749H61.0791C61.3327 42.4827 61.5737 42.2267 61.7998 41.9805V42.749Z" fill="#FD7919"/>
<path d="M25.1445 66.9648C24.7081 66.7853 24.296 66.6065 23.9141 66.4229C24.3241 66.3255 24.7344 66.2203 25.1445 66.1094V66.9648Z" fill="white"/>
<path d="M25.1445 66.9648C24.7081 66.7853 24.296 66.6065 23.9141 66.4229C24.3241 66.3255 24.7344 66.2203 25.1445 66.1094V66.9648Z" fill="#FD7919"/>
<circle cx="209.609" cy="13" r="9.5" fill="#FD7919"/>
</svg>
